<svg xmlns="http://www.w3.org/2000/svg" viewBox="0 0 507.231 191.927">
  <title>assets</title>
  <g>
    <path d="M442.6,255.4l-1.758-4.529h-.238a13.423,13.423,0,0,1-4.723,4.007A15.246,15.246,0,0,1,429.553,256,10.235,10.235,0,0,1,422,253.259q-2.755-2.742-2.756-7.807,0-5.3,3.709-7.822t11.189-2.785l5.781-.179v-1.46q0-5.065-5.185-5.066a23.609,23.609,0,0,0-9.386,2.414l-3.009-6.139a27.091,27.091,0,0,1,12.752-3.009q6.7,0,10.28,2.92t3.576,8.88v22.2Zm-2.681-15.435-3.516.119a11.265,11.265,0,0,0-5.9,1.431,4.492,4.492,0,0,0-1.937,3.993q0,3.843,4.41,3.843a6.986,6.986,0,0,0,5.05-1.817,6.383,6.383,0,0,0,1.893-4.827Z" transform="translate(-258.384 -64.073)" style="fill: #e8000c"/>
    <path d="M481.548,245.512a9.175,9.175,0,0,1-3.56,7.806Q474.427,256,467.335,256a33.427,33.427,0,0,1-6.2-.492,23.434,23.434,0,0,1-4.8-1.445v-7.508a31.779,31.779,0,0,0,5.706,2,23.123,23.123,0,0,0,5.587.8q4.946,0,4.947-2.86a2.388,2.388,0,0,0-.656-1.743,9.5,9.5,0,0,0-2.265-1.52q-1.609-.849-4.29-1.981a26.955,26.955,0,0,1-5.647-2.98,8.378,8.378,0,0,1-2.622-3.144,10.362,10.362,0,0,1-.819-4.365,7.915,7.915,0,0,1,3.441-6.868q3.441-2.428,9.759-2.428a27.709,27.709,0,0,1,11.711,2.622l-2.743,6.555q-2.5-1.073-4.678-1.758a14.684,14.684,0,0,0-4.439-.685q-4.023,0-4.023,2.175a2.556,2.556,0,0,0,1.3,2.115,35.213,35.213,0,0,0,5.677,2.652,26.458,26.458,0,0,1,5.72,2.95,8.744,8.744,0,0,1,2.682,3.159A9.693,9.693,0,0,1,481.548,245.512Z" transform="translate(-258.384 -64.073)" style="fill: #e8000c"/>
    <path d="M511.881,245.512a9.174,9.174,0,0,1-3.561,7.806Q504.759,256,497.669,256a33.442,33.442,0,0,1-6.2-.492,23.443,23.443,0,0,1-4.8-1.445v-7.508a31.806,31.806,0,0,0,5.706,2,23.123,23.123,0,0,0,5.587.8q4.945,0,4.946-2.86a2.387,2.387,0,0,0-.655-1.743,9.5,9.5,0,0,0-2.265-1.52q-1.608-.849-4.291-1.981a26.943,26.943,0,0,1-5.646-2.98,8.387,8.387,0,0,1-2.622-3.144,10.362,10.362,0,0,1-.82-4.365,7.915,7.915,0,0,1,3.442-6.868q3.443-2.428,9.758-2.428a27.705,27.705,0,0,1,11.711,2.622l-2.742,6.555q-2.5-1.073-4.678-1.758a14.684,14.684,0,0,0-4.439-.685q-4.023,0-4.023,2.175a2.556,2.556,0,0,0,1.3,2.115,35.232,35.232,0,0,0,5.676,2.652,26.482,26.482,0,0,1,5.722,2.95,8.728,8.728,0,0,1,2.68,3.159A9.692,9.692,0,0,1,511.881,245.512Z" transform="translate(-258.384 -64.073)" style="fill: #e8000c"/>
    <path d="M534.049,256q-8.046,0-12.574-4.44t-4.53-12.574q0-8.373,4.188-12.946t11.575-4.574q7.06,0,11,4.022t3.933,11.114v4.41H526.152a8.756,8.756,0,0,0,2.295,6.049,8.076,8.076,0,0,0,6.02,2.175,25.01,25.01,0,0,0,5.691-.626,28.437,28.437,0,0,0,5.6-2v7.032a21.3,21.3,0,0,1-5.094,1.773A32.156,32.156,0,0,1,534.049,256Zm-1.282-28.068a5.764,5.764,0,0,0-4.528,1.832,8.486,8.486,0,0,0-1.877,5.2h12.753a7.58,7.58,0,0,0-1.759-5.2A5.951,5.951,0,0,0,532.767,227.932Z" transform="translate(-258.384 -64.073)" style="fill: #e8000c"/>
    <path d="M569.061,248.76a19.7,19.7,0,0,0,5.72-1.043v6.763a20.4,20.4,0,0,1-8.343,1.52q-5.452,0-7.939-2.756t-2.488-8.269v-16.06H551.66v-3.844l5-3.039L559.288,215H565.1v7.092h9.328v6.823H565.1v16.06a3.546,3.546,0,0,0,1.089,2.861A4.289,4.289,0,0,0,569.061,248.76Z" transform="translate(-258.384 -64.073)" style="fill: #e8000c"/>
    <path d="M604.756,245.512a9.17,9.17,0,0,1-3.56,7.806Q597.635,256,590.544,256a33.427,33.427,0,0,1-6.2-.492,23.406,23.406,0,0,1-4.8-1.445v-7.508a31.751,31.751,0,0,0,5.706,2,23.115,23.115,0,0,0,5.586.8q4.946,0,4.945-2.86a2.391,2.391,0,0,0-.654-1.743,9.506,9.506,0,0,0-2.266-1.52q-1.608-.849-4.289-1.981a26.981,26.981,0,0,1-5.647-2.98,8.365,8.365,0,0,1-2.621-3.144,10.345,10.345,0,0,1-.821-4.365,7.913,7.913,0,0,1,3.442-6.868q3.441-2.428,9.759-2.428a27.7,27.7,0,0,1,11.709,2.622l-2.741,6.555q-2.5-1.073-4.678-1.758a14.684,14.684,0,0,0-4.439-.685q-4.023,0-4.023,2.175a2.555,2.555,0,0,0,1.3,2.115,35.207,35.207,0,0,0,5.675,2.652,26.482,26.482,0,0,1,5.722,2.95,8.718,8.718,0,0,1,2.68,3.159A9.693,9.693,0,0,1,604.756,245.512Z" transform="translate(-258.384 -64.073)" style="fill: #e8000c"/>
  </g>
  <g>
    <g>
      <path d="M553.929,137.826a2.135,2.135,0,0,0-2.136-1.429,5.285,5.285,0,0,0-3.57,1.667,54.624,54.624,0,0,1-13.934,9.822c-1.567.769-3.054,1.405-4.477,1.938q.966-3.794,2.048-7.155,1.906-5.909,4.4-12.524a97.566,97.566,0,0,0,3.451-10.627q.738-3.47-.671-5.26t-4.879-1.789a18.841,18.841,0,0,0-8.392,2.494,42.963,42.963,0,0,0-10.5,8.35A82.061,82.061,0,0,0,504.01,138.5q1.446-4.772,2.791-8.025t3.348-7.591a49.208,49.208,0,0,0,3.286-7.808q.322-1.516-.429-2.06a5.431,5.431,0,0,0-2.922-.542,12.973,12.973,0,0,0-6.546,1.464,11.026,11.026,0,0,0-4.179,4.608,102.508,102.508,0,0,0-8.425,21.51c-.109.092-.218.185-.327.287a49.765,49.765,0,0,1-12.692,8.946q-6.963,3.417-11.841,3.416-7.592,0-9.241-4.988,13.461-3.144,19.972-8.512a22.462,22.462,0,0,0,8.1-12.851q1.359-6.4-1.641-10.139t-9.289-3.741a25.935,25.935,0,0,0-13.44,3.8,35.181,35.181,0,0,0-10.908,10.248,37.792,37.792,0,0,0-6.107,13.935c-.14.661-.253,1.306-.353,1.942a42.9,42.9,0,0,1-10.962,7.167,32.2,32.2,0,0,1-12.954,3.036q-5.529,0-7.935-1.952a4.724,4.724,0,0,1-1.759-4.988q1.014-4.771,8.547-9.6A105.64,105.64,0,0,1,436.4,127a18.187,18.187,0,0,0,5.834-3.47,10.214,10.214,0,0,0,2.779-5.422q.669-3.144-.147-4.663a2.707,2.707,0,0,0-2.552-1.518,11.353,11.353,0,0,0-2.749.434q-1.665.433-2.229.542a21.046,21.046,0,0,1-4.305.867q-3.147,0-7.685-.325t-6.251-.434q-8.19-.757-13.177-.759a4.913,4.913,0,0,0-3.842,2.006,10.485,10.485,0,0,0-2.227,4.609,6.514,6.514,0,0,0,.337,4.283,3.118,3.118,0,0,0,3.275,1.681l17.877-.434q-11.82,5.1-18.742,10.628t-8.445,12.687a12.318,12.318,0,0,0,1.042,8.621,14.077,14.077,0,0,0,7,6.073,30.1,30.1,0,0,0,12.323,2.223,42.438,42.438,0,0,0,17.778-3.8A48.988,48.988,0,0,0,443.95,153.4a14.63,14.63,0,0,0,2.264,3.959q4.974,6.182,16.362,6.181a36.483,36.483,0,0,0,16.546-4.121,61.9,61.9,0,0,0,9.177-5.571,21.568,21.568,0,0,0,.085,5.355q.757,4.338,4.88,4.337a7.567,7.567,0,0,0,5.314-1.789q1.952-1.789,4.229-6.886a94.406,94.406,0,0,1,6.957-12.579,77.912,77.912,0,0,1,7.245-9.6q3.319-3.632,4.731-3.633,1.191,0,.823,1.735a116.3,116.3,0,0,1-3.652,11.061,123.381,123.381,0,0,0-4.561,14.314q-.783,3.689.452,5.531t4.812,1.843a11.592,11.592,0,0,0,3.284-.427,41.711,41.711,0,0,0,12.716-4.1,58.79,58.79,0,0,0,14.542-9.882,13.622,13.622,0,0,0,3.831-7.382A6.816,6.816,0,0,0,553.929,137.826Zm-96.988,1.211a26.429,26.429,0,0,1,5.163-11.278q3.756-4.66,7.768-4.663a3.211,3.211,0,0,1,2.826,1.247,4.1,4.1,0,0,1,.435,3.307q-.852,4.014-5.184,7.049a31.033,31.033,0,0,1-11.054,4.555Z" transform="translate(-258.384 -64.073)" style="fill: #e85d64"/>
      <path d="M761.751,128.063c-11.341,7.2-19.665,18.924-32.738,24.139A32.821,32.821,0,0,1,734,145.033c4.7-5.609,9.566-11.125,12.351-18.026,3.489-8.644-1.793-15.622-11.091-14.768a20.511,20.511,0,0,0-10.011,4.18c-2.336,1.661-4.534,3.515-7.188,5.592-.075-1.411-.05-2.274-.186-3.11a23.612,23.612,0,0,0-.62-2.4c-4.725-2.611-6.349-2.394-8.814,1.478a19.244,19.244,0,0,0-3.024,6.409c-1.491,7.98-6.707,13.141-12.649,17.889-4.376,3.5-8.529,7.342-14.328,9.059-1.009-3.734.364-6.591,1.522-9.427q11.82-28.938,23.713-57.846a32.325,32.325,0,0,0,1.875-5.127,5.222,5.222,0,0,0-2.106-5.814c-2.21-1.535-4.445-1.338-6.709-.076-2.057,1.147-3.059,3.057-3.875,5.134Q679.927,111.1,667,144.029c-1.882,4.817-6.778,7.838-12.794,7.242-.165-6.927,2.778-13.006,5.251-19.212,1.689-4.239,3.56-8.434,4.844-12.8a5.266,5.266,0,0,0-3.342-6.7c-2.894-1.148-5.058.314-6.384,2.771a64.772,64.772,0,0,0-3.264,7.515c-3.245,8.422-7.151,16.463-13.574,22.974-2.814,2.854-5.926,5.393-10.442,4.68-1.493-2.676-.576-5.121.02-7.566,1.885-7.74,6.07-14.466,9.507-21.52,1.566-3.215,2.5-6.489-1.515-8.451-3.713-1.817-7.057-.427-8.868,3.06a166.732,166.732,0,0,0-9.511,21.213c-.086.074-.171.144-.256.224a54.659,54.659,0,0,1-13.934,9.822c-.514.252-1.014.482-1.513.709,2.529-8.363,5.235-16.671,8.444-24.822a34.782,34.782,0,0,0,2.541-11.751c.093-3.19-.581-6-4.171-6.74-3.342-.691-5.744,1.033-7.034,3.965a64.822,64.822,0,0,0-3.3,9.294c-3.571,13.324-12.81,22.31-23.165,30.4-2.724,2.129-5.792,4-10,2.406-3.978-4.649-3.236-10.419-2.227-15.931,3.3-18.014,11.231-33.946,22.735-48.094a43.237,43.237,0,0,1,7.983-7.474c6.834-5,11.866-3.794,16.321,3.444,1.79,2.908,3.139,6.328,7.061,7.013,5.82-2.4,7.477-7.18,4.516-12.8-6.206-11.777-18.9-16.023-30.883-10.321A39.827,39.827,0,0,0,579.217,74c-19.661,19.226-30.478,42.7-32.618,70-.62,7.908,1.65,15.5,9.293,19.784,7.3,4.091,13.866.849,19.953-3.229,4.049-2.712,7.76-5.93,11.968-9.189-.07,4.173-1.934,7.441-2.707,10.966-.7,3.211-1.849,6.355-2.245,9.6-.369,3.019-.74,6.767,3.166,7.827,3.781,1.025,5.427-2.267,6.968-4.954a21.187,21.187,0,0,0,1.728-4.6q1.333-4.53,2.639-9.068a44.292,44.292,0,0,0,6.7-2.718,70.391,70.391,0,0,0,8.847-5.236c-.638,8.272,5.006,12.661,13.86,11.1,6.8-1.2,11.922-5.208,16.9-10.556,2.223,13,6.385,13.821,21.727,4.978,2.963,5.369,7.435,6.891,13.323,5.18,5.313-1.544,9.431-5.117,14.945-8.694-3.347,7.193-6.213,13.254-8.992,19.354-2.2,4.818-4.706,9.544-5.721,14.794-.529,2.739-.627,5.722,2.588,7.07a6.867,6.867,0,0,0,8.026-1.824,18.721,18.721,0,0,0,3.9-7.165c4.264-12.073,8.953-23.972,14.366-35.585,3.821-8.2,8.481-15.815,15.245-21.921,2.945-2.658,6.141-5.146,10.683-4.542.532,3.689-1.993,5.63-3.662,7.861-4.377,5.853-9.673,11.021-13.284,17.442-4.366,7.765-.653,13.931,8.278,13.929a22.064,22.064,0,0,0,10.988-3.012c10.489-5.931,18.638-14.71,27.25-22.861C766.994,135.257,766.1,131.064,761.751,128.063Z" transform="translate(-258.384 -64.073)" style="fill: #e8000c"/>
    </g>
    <g>
      <polygon points="113.307 108.565 10.521 108.565 61.914 124.769 113.307 108.565" style="fill: #e85d64"/>
      <path d="M381.986,108.305l-.363-4.51-4.608-.356a71.456,71.456,0,0,0-12.98.159c4,28.8-9.533,55.725-34.758,66.363-.109.046-.22.089-.329.135l-.163,2.542C361.718,169.333,384.759,142.7,381.986,108.305Z" transform="translate(-258.384 -64.073)" style="fill: #e85d64"/>
      <path d="M276.561,103.6a71.446,71.446,0,0,0-12.979-.159l-4.608.356-.364,4.51c-2.754,34.156,19.956,60.664,52.529,64.262l-.227-2.783C285.95,159.028,272.579,132.239,276.561,103.6Z" transform="translate(-258.384 -64.073)" style="fill: #e85d64"/>
      <path d="M364.035,103.6a77.606,77.606,0,0,0-4.769-17.938l-1.7-4.291-3.957,1.259a56.943,56.943,0,0,0-14.019,6.656,66.978,66.978,0,0,1,6.023,19.067A63.245,63.245,0,0,1,364.035,103.6Z" transform="translate(-258.384 -64.073)" style="fill: #e85d64"/>
      <path d="M331.153,161.127l-1.814,2.853-.391,6.116c.109-.046.22-.089.329-.135C354.5,159.323,368.039,132.4,364.035,103.6a63.245,63.245,0,0,0-18.426,4.753A67.075,67.075,0,0,1,331.153,161.127Z" transform="translate(-258.384 -64.073)" style="fill: #e82e37"/>
      <path d="M301.011,89.284a56.95,56.95,0,0,0-14.02-6.656l-3.957-1.259-1.7,4.291a77.609,77.609,0,0,0-4.77,17.938,63.237,63.237,0,0,1,18.426,4.753A66.949,66.949,0,0,1,301.011,89.284Z" transform="translate(-258.384 -64.073)" style="fill: #e85d64"/>
      <path d="M310.912,169.784l-.465-5.7-2.561-3.9c.16.06-.219-.2-.327-1.114l-.052-.453a66.919,66.919,0,0,1-12.52-50.271,63.237,63.237,0,0,0-18.426-4.753C272.579,132.239,285.95,159.028,310.912,169.784Z" transform="translate(-258.384 -64.073)" style="fill: #e82e37"/>
      <path d="M320.3,110.82a56.916,56.916,0,0,1,19.288-21.536,71.194,71.194,0,0,0-15.772-21.025L320.3,65.014l-3.515,3.245a71.194,71.194,0,0,0-15.772,21.025A56.9,56.9,0,0,1,320.3,110.82Z" transform="translate(-258.384 -64.073)" style="fill: #e85d64"/>
      <path d="M307.507,158.622c-.432-3.777-3.425-29.917-3.464-30.207a.33.33,0,0,1,0-.15.34.34,0,0,1,.137-.153c1.226-.879,3.31-.975,4.817-1.155,1.535-.184,3.08-.3,4.625-.385,3.321-.181,6.655-.21,9.98-.113l1.731-6,8.478-8.012c.535-.486,2.555,1.131,2.106,1.587l-7.949,7.537-1.378,5.019c1.694.1,3.389.233,5.068.46a22.179,22.179,0,0,1,2.74.508,4.448,4.448,0,0,1,1.37.569c.045.031.09.064.133.1a.219.219,0,0,1,.024.138c-.075.529-3.826,30.754-3.826,30.754.246-.2-.424,1.028-.291.977l-.659,1.036a66.679,66.679,0,0,0,8.433-71.843A56.916,56.916,0,0,0,320.3,110.82a56.9,56.9,0,0,0-19.287-21.536,66.608,66.608,0,0,0,6.5,69.338Z" transform="translate(-258.384 -64.073)" style="fill: #e8000c"/>
    </g>
  </g>
</svg>
