<svg xmlns="http://www.w3.org/2000/svg" viewBox="0 0 1024 320">
  <title>assets</title>
  <g>
    <path d="M442.578,255.4l-1.759-4.531h-.238a13.425,13.425,0,0,1-4.725,4.009A15.272,15.272,0,0,1,429.522,256a10.243,10.243,0,0,1-7.556-2.742q-2.757-2.744-2.757-7.81,0-5.306,3.711-7.825t11.193-2.786l5.782-.179V233.2q0-5.067-5.186-5.068a23.629,23.629,0,0,0-9.39,2.415l-3.01-6.141a27.1,27.1,0,0,1,12.757-3.01q6.707,0,10.284,2.921t3.577,8.883V255.4ZM439.9,239.963l-3.517.119a11.273,11.273,0,0,0-5.9,1.431,4.494,4.494,0,0,0-1.937,4q0,3.844,4.411,3.845A6.987,6.987,0,0,0,438,247.535a6.386,6.386,0,0,0,1.893-4.829Z" style="fill: #e8000c"/>
    <path d="M481.537,245.508a9.179,9.179,0,0,1-3.562,7.809Q474.413,256,467.318,256a33.461,33.461,0,0,1-6.2-.492,23.463,23.463,0,0,1-4.8-1.446v-7.511a31.723,31.723,0,0,0,5.708,2,23.15,23.15,0,0,0,5.589.805q4.949,0,4.949-2.862a2.4,2.4,0,0,0-.656-1.744,9.557,9.557,0,0,0-2.266-1.52q-1.609-.849-4.292-1.982a26.975,26.975,0,0,1-5.649-2.981,8.385,8.385,0,0,1-2.623-3.145,10.367,10.367,0,0,1-.819-4.366,7.917,7.917,0,0,1,3.442-6.871q3.442-2.43,9.762-2.43a27.73,27.73,0,0,1,11.716,2.624l-2.744,6.557q-2.5-1.073-4.679-1.758a14.7,14.7,0,0,0-4.441-.686q-4.024,0-4.025,2.176a2.559,2.559,0,0,0,1.3,2.116,35.122,35.122,0,0,0,5.678,2.653,26.414,26.414,0,0,1,5.723,2.952,8.739,8.739,0,0,1,2.683,3.159A9.7,9.7,0,0,1,481.537,245.508Z" style="fill: #e8000c"/>
    <path d="M511.88,245.508a9.175,9.175,0,0,1-3.561,7.809Q504.757,256,497.663,256a33.446,33.446,0,0,1-6.2-.492,23.426,23.426,0,0,1-4.8-1.446v-7.511a31.723,31.723,0,0,0,5.708,2,23.137,23.137,0,0,0,5.589.805q4.947,0,4.948-2.862a2.392,2.392,0,0,0-.656-1.744,9.536,9.536,0,0,0-2.266-1.52q-1.608-.849-4.292-1.982a26.962,26.962,0,0,1-5.648-2.981,8.376,8.376,0,0,1-2.623-3.145,10.366,10.366,0,0,1-.82-4.366,7.916,7.916,0,0,1,3.443-6.871q3.442-2.43,9.762-2.43a27.725,27.725,0,0,1,11.715,2.624l-2.743,6.557q-2.5-1.073-4.68-1.758a14.694,14.694,0,0,0-4.441-.686q-4.025,0-4.024,2.176a2.557,2.557,0,0,0,1.3,2.116,35.192,35.192,0,0,0,5.679,2.653,26.439,26.439,0,0,1,5.723,2.952,8.726,8.726,0,0,1,2.682,3.159A9.7,9.7,0,0,1,511.88,245.508Z" style="fill: #e8000c"/>
    <path d="M534.057,256q-8.049,0-12.578-4.442t-4.532-12.578q0-8.376,4.189-12.952t11.58-4.576q7.063,0,11,4.025t3.935,11.118v4.411H526.157a8.764,8.764,0,0,0,2.3,6.052,8.077,8.077,0,0,0,6.022,2.175,24.98,24.98,0,0,0,5.694-.626,28.517,28.517,0,0,0,5.6-2v7.034a21.319,21.319,0,0,1-5.1,1.773A32.11,32.11,0,0,1,534.057,256Zm-1.282-28.079a5.766,5.766,0,0,0-4.53,1.833,8.484,8.484,0,0,0-1.878,5.2h12.758a7.584,7.584,0,0,0-1.759-5.2A5.955,5.955,0,0,0,532.775,227.921Z" style="fill: #e8000c"/>
    <path d="M569.083,248.757a19.718,19.718,0,0,0,5.722-1.043v6.766a20.414,20.414,0,0,1-8.346,1.52q-5.455,0-7.942-2.757t-2.49-8.272V228.905h-4.352v-3.846l5.007-3.04,2.623-7.035h5.813v7.095h9.33v6.826h-9.33v16.066a3.548,3.548,0,0,0,1.088,2.862A4.294,4.294,0,0,0,569.083,248.757Z" style="fill: #e8000c"/>
    <path d="M604.791,245.508a9.173,9.173,0,0,1-3.561,7.809Q597.668,256,590.574,256a33.461,33.461,0,0,1-6.2-.492,23.444,23.444,0,0,1-4.8-1.446v-7.511a31.707,31.707,0,0,0,5.709,2,23.136,23.136,0,0,0,5.588.805q4.947,0,4.947-2.862a2.4,2.4,0,0,0-.654-1.744,9.546,9.546,0,0,0-2.267-1.52q-1.608-.849-4.291-1.982a26.975,26.975,0,0,1-5.649-2.981,8.363,8.363,0,0,1-2.622-3.145,10.35,10.35,0,0,1-.822-4.366,7.916,7.916,0,0,1,3.444-6.871q3.443-2.43,9.763-2.43a27.713,27.713,0,0,1,11.713,2.624l-2.741,6.557q-2.5-1.073-4.681-1.758a14.7,14.7,0,0,0-4.44-.686q-4.024,0-4.025,2.176a2.559,2.559,0,0,0,1.3,2.116,35.078,35.078,0,0,0,5.678,2.653,26.451,26.451,0,0,1,5.724,2.952,8.713,8.713,0,0,1,2.681,3.159A9.7,9.7,0,0,1,604.791,245.508Z" style="fill: #e8000c"/>
  </g>
  <g>
    <g>
      <path d="M553.945,137.781a2.138,2.138,0,0,0-2.137-1.43,5.289,5.289,0,0,0-3.571,1.668,54.665,54.665,0,0,1-13.939,9.826c-1.568.769-3.055,1.406-4.479,1.938q.966-3.793,2.048-7.157,1.908-5.91,4.4-12.529a97.773,97.773,0,0,0,3.453-10.631q.738-3.471-.671-5.262t-4.881-1.79a18.852,18.852,0,0,0-8.4,2.5,42.964,42.964,0,0,0-10.508,8.353,82.081,82.081,0,0,0-11.256,15.187q1.446-4.773,2.792-8.027t3.349-7.594a49.215,49.215,0,0,0,3.287-7.811c.216-1.012.071-1.7-.429-2.061a5.432,5.432,0,0,0-2.922-.543,12.983,12.983,0,0,0-6.549,1.465,11.023,11.023,0,0,0-4.181,4.61,102.529,102.529,0,0,0-8.428,21.518c-.109.092-.218.185-.328.287a49.779,49.779,0,0,1-12.695,8.95q-6.966,3.417-11.847,3.417-7.593,0-9.244-4.99,13.467-3.145,19.98-8.516a22.464,22.464,0,0,0,8.1-12.855q1.361-6.4-1.641-10.143t-9.293-3.743a25.945,25.945,0,0,0-13.445,3.8A35.2,35.2,0,0,0,449.6,126.463a37.8,37.8,0,0,0-6.109,13.94c-.14.662-.253,1.306-.353,1.942a42.875,42.875,0,0,1-10.966,7.17,32.186,32.186,0,0,1-12.959,3.037q-5.532,0-7.938-1.952a4.726,4.726,0,0,1-1.76-4.99q1.016-4.773,8.55-9.6a105.793,105.793,0,0,1,18.306-9.058,18.177,18.177,0,0,0,5.836-3.471,10.212,10.212,0,0,0,2.781-5.424q.668-3.145-.148-4.665a2.708,2.708,0,0,0-2.552-1.519,11.4,11.4,0,0,0-2.75.434q-1.666.435-2.23.542a21.011,21.011,0,0,1-4.307.868q-3.149,0-7.688-.325t-6.253-.434q-8.194-.757-13.182-.76a4.918,4.918,0,0,0-3.844,2.007,10.489,10.489,0,0,0-2.228,4.611,6.533,6.533,0,0,0,.337,4.285,3.12,3.12,0,0,0,3.277,1.681l17.883-.434q-11.824,5.1-18.749,10.632t-8.447,12.692a12.32,12.32,0,0,0,1.041,8.624,14.083,14.083,0,0,0,7.008,6.075,30.106,30.106,0,0,0,12.328,2.224,42.45,42.45,0,0,0,17.784-3.8,49.01,49.01,0,0,0,11.653-7.432,14.645,14.645,0,0,0,2.265,3.961q4.975,6.183,16.369,6.183a36.5,36.5,0,0,0,16.551-4.122,61.955,61.955,0,0,0,9.181-5.574,21.584,21.584,0,0,0,.085,5.357q.759,4.34,4.882,4.339a7.568,7.568,0,0,0,5.316-1.79q1.952-1.789,4.23-6.888a94.533,94.533,0,0,1,6.96-12.584,77.9,77.9,0,0,1,7.248-9.6q3.321-3.633,4.732-3.634,1.192,0,.824,1.736-.507,2.387-3.653,11.065a123.153,123.153,0,0,0-4.563,14.32q-.783,3.689.452,5.532t4.814,1.844a11.6,11.6,0,0,0,3.285-.427,41.717,41.717,0,0,0,12.721-4.1A58.811,58.811,0,0,0,550.17,149.1,13.627,13.627,0,0,0,554,141.711,6.823,6.823,0,0,0,553.945,137.781Zm-97.024,1.211a26.44,26.44,0,0,1,5.164-11.282q3.757-4.662,7.771-4.664a3.21,3.21,0,0,1,2.827,1.247,4.105,4.105,0,0,1,.436,3.309q-.854,4.014-5.187,7.051a31.029,31.029,0,0,1-11.058,4.556Z" style="fill: #e85d64"/>
      <path d="M761.845,128.014c-11.345,7.2-19.672,18.932-32.75,24.149a32.814,32.814,0,0,1,4.99-7.172c4.7-5.612,9.57-11.13,12.356-18.033,3.491-8.647-1.794-15.628-11.1-14.774a20.524,20.524,0,0,0-10.015,4.182c-2.337,1.661-4.536,3.516-7.19,5.594-.076-1.411-.05-2.274-.187-3.111a23.636,23.636,0,0,0-.62-2.4c-4.726-2.612-6.351-2.395-8.818,1.478a19.277,19.277,0,0,0-3.024,6.412c-1.492,7.984-6.71,13.146-12.654,17.9-4.378,3.5-8.533,7.344-14.334,9.063-1.009-3.737.364-6.594,1.523-9.431Q691.852,112.919,703.749,84a32.451,32.451,0,0,0,1.876-5.129,5.225,5.225,0,0,0-2.107-5.816c-2.211-1.536-4.447-1.339-6.711-.076-2.059,1.147-3.061,3.057-3.878,5.135q-12.939,32.935-25.867,65.874c-1.882,4.818-6.781,7.841-12.8,7.244-.166-6.93,2.779-13.011,5.253-19.219,1.689-4.241,3.561-8.437,4.846-12.8a5.268,5.268,0,0,0-3.344-6.706c-2.895-1.149-5.059.313-6.386,2.772a64.673,64.673,0,0,0-3.265,7.518c-3.246,8.424-7.154,16.469-13.579,22.983-2.816,2.854-5.928,5.394-10.446,4.681-1.494-2.677-.576-5.123.02-7.569,1.886-7.743,6.072-14.471,9.51-21.528,1.566-3.216,2.5-6.491-1.515-8.454-3.715-1.817-7.06-.427-8.872,3.061a167,167,0,0,0-9.515,21.221c-.085.074-.17.144-.256.224a54.665,54.665,0,0,1-13.939,9.826c-.514.252-1.014.482-1.513.709,2.53-8.367,5.237-16.678,8.447-24.832a34.806,34.806,0,0,0,2.542-11.755c.093-3.191-.582-6-4.173-6.743-3.343-.69-5.746,1.034-7.037,3.967a64.985,64.985,0,0,0-3.3,9.3c-3.572,13.33-12.815,22.319-23.173,30.416-2.725,2.13-5.794,4-10,2.407-3.98-4.651-3.237-10.423-2.228-15.937,3.3-18.02,11.235-33.959,22.744-48.112a43.309,43.309,0,0,1,7.986-7.478c6.836-5,11.87-3.794,16.327,3.447,1.791,2.909,3.14,6.329,7.063,7.015,5.823-2.4,7.48-7.183,4.518-12.8-6.208-11.781-18.9-16.029-30.894-10.324a39.8,39.8,0,0,0-10.835,7.414c-19.669,19.233-30.49,42.718-32.631,70.03-.62,7.911,1.65,15.508,9.3,19.791,7.307,4.092,13.872.849,19.961-3.23,4.051-2.714,7.763-5.932,11.973-9.193-.07,4.175-1.935,7.444-2.709,10.971-.7,3.212-1.849,6.357-2.245,9.6-.369,3.02-.74,6.77,3.167,7.83,3.782,1.026,5.429-2.268,6.971-4.955a21.3,21.3,0,0,0,1.729-4.6q1.334-4.533,2.639-9.072a44.227,44.227,0,0,0,6.706-2.719,70.367,70.367,0,0,0,8.85-5.238c-.638,8.275,5.008,12.666,13.866,11.1,6.8-1.2,11.926-5.21,16.9-10.56,2.224,13,6.387,13.826,21.736,4.98,2.963,5.371,7.437,6.893,13.327,5.182,5.315-1.545,9.435-5.119,14.951-8.7-3.349,7.2-6.216,13.258-9,19.361-2.2,4.82-4.708,9.547-5.722,14.8-.53,2.74-.628,5.725,2.588,7.073a6.87,6.87,0,0,0,8.03-1.824,18.722,18.722,0,0,0,3.9-7.168c4.265-12.078,8.957-23.981,14.371-35.6,3.823-8.2,8.485-15.821,15.251-21.93,2.946-2.659,6.144-5.148,10.687-4.544.532,3.691-1.993,5.633-3.663,7.865-4.379,5.854-9.677,11.025-13.289,17.448-4.368,7.768-.653,13.936,8.281,13.934a22.089,22.089,0,0,0,10.992-3.012c10.493-5.934,18.645-14.716,27.26-22.87C767.09,135.211,766.192,131.017,761.845,128.014Z" style="fill: #e8000c"/>
    </g>
    <g>
      <polygon points="371.638 172.606 268.813 172.606 320.225 188.817 371.638 172.606" style="fill: #e85d64"/>
      <path d="M381.937,108.249l-.364-4.512-4.61-.356a71.5,71.5,0,0,0-12.984.159c4.006,28.808-9.537,55.746-34.771,66.388-.109.046-.22.09-.33.135l-.162,2.543C361.661,169.3,384.711,142.652,381.937,108.249Z" style="fill: #e85d64"/>
      <path d="M276.472,103.54a71.5,71.5,0,0,0-12.984-.159l-4.61.356-.364,4.512c-2.755,34.169,19.963,60.687,52.548,64.287l-.227-2.785C285.864,158.991,272.488,132.192,276.472,103.54Z" style="fill: #e85d64"/>
      <path d="M363.979,103.54A77.6,77.6,0,0,0,359.208,85.6L357.5,81.3l-3.959,1.26a56.992,56.992,0,0,0-14.025,6.659,66.965,66.965,0,0,1,6.026,19.074A63.285,63.285,0,0,1,363.979,103.54Z" style="fill: #e85d64"/>
      <path d="M331.084,161.091l-1.815,2.854-.391,6.118c.11-.045.221-.089.33-.135,25.234-10.642,38.777-37.58,34.771-66.388a63.285,63.285,0,0,0-18.433,4.755A67.1,67.1,0,0,1,331.084,161.091Z" style="fill: #e82e37"/>
      <path d="M300.931,89.221a56.992,56.992,0,0,0-14.025-6.659l-3.959-1.26-1.7,4.294a77.6,77.6,0,0,0-4.771,17.944A63.285,63.285,0,0,1,294.9,108.3,66.965,66.965,0,0,1,300.931,89.221Z" style="fill: #e85d64"/>
      <path d="M310.835,169.751l-.465-5.7-2.562-3.9c.16.06-.218-.2-.327-1.115l-.051-.453A66.941,66.941,0,0,1,294.9,108.3a63.285,63.285,0,0,0-18.433-4.755C272.488,132.192,285.864,158.991,310.835,169.751Z" style="fill: #e82e37"/>
      <path d="M320.225,110.765A56.934,56.934,0,0,1,339.52,89.221a71.2,71.2,0,0,0-15.778-21.033l-3.517-3.246-3.516,3.246a71.2,71.2,0,0,0-15.778,21.033A56.923,56.923,0,0,1,320.225,110.765Z" style="fill: #e85d64"/>
      <path d="M307.43,158.585c-.433-3.778-3.427-29.928-3.465-30.219a.326.326,0,0,1,0-.149.335.335,0,0,1,.137-.153c1.226-.88,3.311-.976,4.819-1.156,1.535-.184,3.081-.3,4.627-.385,3.322-.181,6.657-.21,9.984-.113l1.732-6.006,8.48-8.014c.535-.487,2.556,1.131,2.107,1.587l-7.952,7.54-1.379,5.021c1.695.1,3.391.233,5.071.46a22.2,22.2,0,0,1,2.741.509,4.422,4.422,0,0,1,1.37.568c.045.031.09.064.133.1a.222.222,0,0,1,.024.138c-.074.53-3.827,30.766-3.827,30.766.246-.2-.425,1.028-.291.978l-.66,1.036a66.7,66.7,0,0,0,8.436-71.87,56.934,56.934,0,0,0-19.295,21.544,56.923,56.923,0,0,0-19.294-21.544,66.634,66.634,0,0,0,6.5,69.364Z" style="fill: #e8000c"/>
    </g>
  </g>
</svg>
