<svg xmlns="http://www.w3.org/2000/svg" viewBox="0 0 1024 370">
  <title>assets</title>
  <g>
    <path d="M451.067,280.477l-1.544-3.977h-.209a11.78,11.78,0,0,1-4.147,3.519,13.4,13.4,0,0,1-5.559.981,8.988,8.988,0,0,1-6.632-2.407q-2.421-2.408-2.42-6.855,0-4.656,3.257-6.867t9.824-2.446l5.075-.158v-1.282q0-4.446-4.552-4.447a20.741,20.741,0,0,0-8.241,2.119l-2.643-5.39a23.789,23.789,0,0,1,11.2-2.642q5.886,0,9.026,2.564t3.14,7.8v19.492Zm-2.355-13.553-3.087.105a9.885,9.885,0,0,0-5.18,1.256,3.944,3.944,0,0,0-1.7,3.506q0,3.374,3.872,3.374a6.132,6.132,0,0,0,4.434-1.6,5.6,5.6,0,0,0,1.661-4.239Z" style="fill: #e8000c"/>
    <path d="M485.262,271.791a8.054,8.054,0,0,1-3.126,6.854Q479.008,281,472.782,281a29.357,29.357,0,0,1-5.442-.432,20.539,20.539,0,0,1-4.212-1.269v-6.593a27.8,27.8,0,0,0,5.01,1.753,20.286,20.286,0,0,0,4.906.706q4.343,0,4.343-2.511a2.1,2.1,0,0,0-.576-1.531,8.377,8.377,0,0,0-1.988-1.334q-1.413-.745-3.768-1.74a23.626,23.626,0,0,1-4.957-2.616,7.358,7.358,0,0,1-2.3-2.76,9.109,9.109,0,0,1-.719-3.833,6.946,6.946,0,0,1,3.022-6.03q3.021-2.133,8.568-2.133a24.327,24.327,0,0,1,10.283,2.3l-2.409,5.755q-2.195-.942-4.107-1.543a12.9,12.9,0,0,0-3.9-.6q-3.533,0-3.532,1.91a2.244,2.244,0,0,0,1.138,1.857,30.874,30.874,0,0,0,4.984,2.329,23.166,23.166,0,0,1,5.023,2.59,7.674,7.674,0,0,1,2.355,2.773A8.509,8.509,0,0,1,485.262,271.791Z" style="fill: #e8000c"/>
    <path d="M511.9,271.791a8.051,8.051,0,0,1-3.126,6.854Q505.643,281,499.416,281a29.357,29.357,0,0,1-5.442-.432,20.539,20.539,0,0,1-4.212-1.269v-6.593a27.8,27.8,0,0,0,5.01,1.753,20.28,20.28,0,0,0,4.906.706q4.342,0,4.342-2.511a2.1,2.1,0,0,0-.575-1.531,8.366,8.366,0,0,0-1.989-1.334q-1.412-.745-3.767-1.74a23.665,23.665,0,0,1-4.958-2.616,7.364,7.364,0,0,1-2.3-2.76,9.108,9.108,0,0,1-.72-3.833,6.948,6.948,0,0,1,3.022-6.03q3.022-2.133,8.569-2.133a24.323,24.323,0,0,1,10.282,2.3l-2.408,5.755q-2.2-.942-4.107-1.543a12.9,12.9,0,0,0-3.9-.6q-3.532,0-3.532,1.91a2.244,2.244,0,0,0,1.138,1.857,30.874,30.874,0,0,0,4.984,2.329,23.227,23.227,0,0,1,5.024,2.59,7.667,7.667,0,0,1,2.353,2.773A8.509,8.509,0,0,1,511.9,271.791Z" style="fill: #e8000c"/>
    <path d="M531.36,281q-7.065,0-11.04-3.9t-3.978-11.04q0-7.351,3.677-11.368t10.164-4.016q6.2,0,9.655,3.532t3.453,9.759v3.872H524.426a7.693,7.693,0,0,0,2.015,5.311,7.089,7.089,0,0,0,5.286,1.91,21.916,21.916,0,0,0,5-.55,24.954,24.954,0,0,0,4.917-1.752v6.174a18.71,18.71,0,0,1-4.473,1.557A28.213,28.213,0,0,1,531.36,281Zm-1.126-24.645a5.057,5.057,0,0,0-3.975,1.609,7.436,7.436,0,0,0-1.648,4.565h11.2a6.651,6.651,0,0,0-1.544-4.565A5.224,5.224,0,0,0,530.234,256.355Z" style="fill: #e8000c"/>
    <path d="M562.1,274.643a17.313,17.313,0,0,0,5.023-.916v5.939A17.916,17.916,0,0,1,559.8,281q-4.789,0-6.972-2.42t-2.184-7.26v-14.1h-3.821v-3.375l4.395-2.668,2.3-6.175h5.1v6.227h8.19v5.991h-8.19v14.1a3.112,3.112,0,0,0,.956,2.511A3.766,3.766,0,0,0,562.1,274.643Z" style="fill: #e8000c"/>
    <path d="M593.444,271.791a8.049,8.049,0,0,1-3.126,6.854Q587.192,281,580.966,281a29.357,29.357,0,0,1-5.442-.432,20.52,20.52,0,0,1-4.212-1.269v-6.593a27.8,27.8,0,0,0,5.01,1.753,20.286,20.286,0,0,0,4.9.706q4.342,0,4.342-2.511a2.1,2.1,0,0,0-.574-1.531,8.376,8.376,0,0,0-1.99-1.334q-1.412-.745-3.766-1.74a23.665,23.665,0,0,1-4.958-2.616,7.355,7.355,0,0,1-2.3-2.76,9.092,9.092,0,0,1-.721-3.833,6.946,6.946,0,0,1,3.023-6.03q3.021-2.133,8.569-2.133a24.318,24.318,0,0,1,10.281,2.3l-2.406,5.755q-2.2-.942-4.109-1.543a12.9,12.9,0,0,0-3.9-.6q-3.533,0-3.532,1.91a2.244,2.244,0,0,0,1.138,1.857,30.849,30.849,0,0,0,4.983,2.329,23.239,23.239,0,0,1,5.025,2.59,7.658,7.658,0,0,1,2.353,2.773A8.523,8.523,0,0,1,593.444,271.791Z" style="fill: #e8000c"/>
  </g>
  <g>
    <g>
      <path d="M560.587,163.784a2.1,2.1,0,0,0-2.1-1.406,5.205,5.205,0,0,0-3.512,1.64,53.73,53.73,0,0,1-13.708,9.664c-1.542.756-3,1.382-4.4,1.906q.95-3.73,2.014-7.039,1.875-5.812,4.326-12.321a96.122,96.122,0,0,0,3.395-10.455q.726-3.414-.66-5.174t-4.8-1.761a18.539,18.539,0,0,0-8.256,2.454,42.27,42.27,0,0,0-10.334,8.215,80.64,80.64,0,0,0-11.069,14.935q1.422-4.694,2.745-7.894t3.294-7.468a48.461,48.461,0,0,0,3.233-7.682q.317-1.493-.423-2.026a5.333,5.333,0,0,0-2.874-.534,12.766,12.766,0,0,0-6.44,1.44,10.838,10.838,0,0,0-4.111,4.534,100.824,100.824,0,0,0-8.289,21.161c-.107.091-.214.182-.322.283a48.938,48.938,0,0,1-12.486,8.8q-6.85,3.362-11.649,3.361-7.468,0-9.092-4.908,13.244-3.093,19.649-8.374a22.1,22.1,0,0,0,7.969-12.642q1.337-6.294-1.614-9.975t-9.14-3.681a25.507,25.507,0,0,0-13.222,3.734,34.6,34.6,0,0,0-10.731,10.082,37.184,37.184,0,0,0-6.008,13.709c-.138.651-.249,1.285-.347,1.91a42.169,42.169,0,0,1-10.785,7.051,31.654,31.654,0,0,1-12.743,2.987q-5.441,0-7.807-1.92a4.648,4.648,0,0,1-1.731-4.907q1-4.695,8.409-9.442a103.964,103.964,0,0,1,18-8.908,17.874,17.874,0,0,0,5.74-3.414,10.043,10.043,0,0,0,2.734-5.334q.657-3.093-.145-4.588a2.663,2.663,0,0,0-2.51-1.493,11.169,11.169,0,0,0-2.7.427q-1.64.426-2.194.533a20.666,20.666,0,0,1-4.235.853q-3.1,0-7.56-.32t-6.15-.426q-8.058-.746-12.964-.747a4.834,4.834,0,0,0-3.78,1.974,10.305,10.305,0,0,0-2.19,4.533,6.419,6.419,0,0,0,.331,4.215A3.067,3.067,0,0,0,412.559,151l17.587-.427q-11.628,5.016-18.438,10.455T403.4,173.51a12.119,12.119,0,0,0,1.025,8.482,13.852,13.852,0,0,0,6.891,5.974,29.616,29.616,0,0,0,12.124,2.187,41.751,41.751,0,0,0,17.49-3.734,48.192,48.192,0,0,0,11.459-7.309,14.38,14.38,0,0,0,2.228,3.895q4.893,6.081,16.1,6.081a35.892,35.892,0,0,0,16.277-4.054,60.969,60.969,0,0,0,9.029-5.481,21.171,21.171,0,0,0,.084,5.268q.746,4.268,4.8,4.267a7.446,7.446,0,0,0,5.229-1.76q1.918-1.761,4.16-6.775a92.861,92.861,0,0,1,6.844-12.375,76.5,76.5,0,0,1,7.128-9.441q3.266-3.573,4.654-3.574,1.172,0,.81,1.707a114.285,114.285,0,0,1-3.593,10.881,121.3,121.3,0,0,0-4.487,14.083q-.771,3.627.444,5.441t4.735,1.813a11.421,11.421,0,0,0,3.23-.42,41.024,41.024,0,0,0,12.51-4.033,57.853,57.853,0,0,0,14.307-9.721,13.406,13.406,0,0,0,3.769-7.263A6.707,6.707,0,0,0,560.587,163.784Zm-95.417,1.192a25.989,25.989,0,0,1,5.079-11.095q3.7-4.587,7.643-4.588a3.159,3.159,0,0,1,2.78,1.227,4.039,4.039,0,0,1,.428,3.254q-.84,3.948-5.1,6.934a30.519,30.519,0,0,1-10.874,4.481Z" style="fill: #e85d64"/>
      <path d="M765.042,154.18c-11.157,7.085-19.346,18.617-32.208,23.748a32.29,32.29,0,0,1,4.908-7.053c4.625-5.519,9.411-10.945,12.151-17.734,3.433-8.5-1.764-15.369-10.911-14.529a20.177,20.177,0,0,0-9.849,4.112c-2.3,1.634-4.461,3.458-7.071,5.5-.075-1.387-.05-2.236-.184-3.059a23.049,23.049,0,0,0-.61-2.36c-4.648-2.569-6.246-2.356-8.671,1.454a18.944,18.944,0,0,0-2.975,6.305c-1.467,7.851-6.6,12.928-12.444,17.6-4.3,3.439-8.391,7.222-14.1,8.912-.992-3.674.358-6.485,1.5-9.274q11.63-28.47,23.329-56.91a31.908,31.908,0,0,0,1.845-5.044,5.137,5.137,0,0,0-2.072-5.719c-2.174-1.51-4.374-1.317-6.6-.075-2.024,1.128-3.01,3.007-3.813,5.05q-12.725,32.389-25.439,64.782c-1.851,4.739-6.668,7.712-12.586,7.125-.163-6.815,2.733-12.8,5.165-18.9,1.662-4.171,3.5-8.3,4.766-12.59a5.181,5.181,0,0,0-3.288-6.595c-2.847-1.13-4.976.308-6.281,2.726a63.849,63.849,0,0,0-3.211,7.393c-3.192,8.285-7.035,16.2-13.354,22.6-2.769,2.808-5.83,5.306-10.273,4.6-1.469-2.632-.566-5.038.02-7.443,1.854-7.615,5.971-14.232,9.353-21.172,1.54-3.162,2.456-6.383-1.49-8.314-3.654-1.787-6.943-.42-8.725,3.011a163.954,163.954,0,0,0-9.357,20.869c-.084.073-.168.142-.252.22a53.747,53.747,0,0,1-13.708,9.664c-.506.248-1,.474-1.488.7,2.488-8.228,5.15-16.4,8.307-24.42a34.225,34.225,0,0,0,2.5-11.561c.091-3.138-.572-5.9-4.1-6.631-3.288-.679-5.651,1.017-6.92,3.9a63.819,63.819,0,0,0-3.247,9.143c-3.513,13.109-12.6,21.949-22.79,29.912-2.68,2.095-5.7,3.938-9.838,2.367-3.914-4.574-3.183-10.25-2.191-15.673,3.242-17.721,11.049-33.4,22.367-47.315a42.566,42.566,0,0,1,7.854-7.353c6.722-4.921,11.673-3.732,16.056,3.389,1.761,2.861,3.088,6.225,6.946,6.9,5.726-2.359,7.356-7.064,4.444-12.591C620.4,92.264,607.913,88.087,596.121,93.7a39.183,39.183,0,0,0-10.656,7.291c-19.342,18.915-29.984,42.01-32.09,68.87-.61,7.78,1.623,15.251,9.142,19.463,7.186,4.025,13.643.835,19.63-3.176,3.984-2.669,7.635-5.835,11.775-9.041-.069,4.106-1.9,7.321-2.664,10.789-.692,3.159-1.818,6.252-2.208,9.44-.363,2.97-.728,6.658,3.115,7.7,3.719,1.009,5.339-2.23,6.855-4.873a20.843,20.843,0,0,0,1.7-4.528q1.311-4.457,2.6-8.921a43.582,43.582,0,0,0,6.594-2.674,69.194,69.194,0,0,0,8.7-5.151c-.627,8.138,4.925,12.456,13.636,10.916,6.693-1.183,11.728-5.123,16.624-10.385,2.187,12.786,6.282,13.6,21.375,4.9,2.915,5.283,7.315,6.78,13.107,5.1,5.227-1.519,9.279-5.034,14.7-8.552-3.293,7.076-6.113,13.038-8.846,19.04-2.16,4.74-4.63,9.389-5.628,14.554-.521,2.694-.617,5.63,2.546,6.956a6.754,6.754,0,0,0,7.9-1.795,18.409,18.409,0,0,0,3.841-7.049c4.194-11.877,8.808-23.583,14.132-35.008,3.76-8.066,8.344-15.559,15-21.566,2.9-2.615,6.042-5.063,10.51-4.469.523,3.63-1.961,5.539-3.6,7.734-4.307,5.758-9.517,10.843-13.069,17.16-4.3,7.639-.643,13.705,8.143,13.7a21.714,21.714,0,0,0,10.81-2.963c10.32-5.835,18.336-14.472,26.809-22.491C770.2,161.257,769.317,157.132,765.042,154.18Z" style="fill: #e8000c"/>
    </g>
    <g>
      <path d="M382.2,134.5l-.374-4.635-4.736-.366a73.427,73.427,0,0,0-13.341.163,79.766,79.766,0,0,0-4.9-18.437L357.1,106.81l-4.067,1.294a58.542,58.542,0,0,0-14.41,6.841,73.2,73.2,0,0,0-16.211-21.61L318.793,90l-3.613,3.335a73.2,73.2,0,0,0-16.211,21.61,58.542,58.542,0,0,0-14.41-6.841l-4.067-1.294-1.751,4.411a79.819,79.819,0,0,0-4.9,18.437,73.417,73.417,0,0,0-13.34-.163l-4.737.366-.373,4.635c-2.578,31.973,16.553,57.426,45.28,64.509h-34.7l52.824,18.271,52.825-18.271h-34.7C365.646,191.921,384.777,166.469,382.2,134.5ZM330.474,153.76a22.851,22.851,0,0,1,2.816.523,4.54,4.54,0,0,1,1.408.584c.046.032.092.065.137.1a.227.227,0,0,1,.024.142c-.076.544-3.932,31.611-3.932,31.611.253-.206-.436,1.056-.3,1l-.678,1.065-1.864,2.932-.4,6.286-.064,1H309.253l-.108-1.318-.477-5.855-2.633-4.007c.165.062-.224-.2-.336-1.145l-.053-.466c-.444-3.882-3.521-30.75-3.56-31.048a.348.348,0,0,1,0-.154.354.354,0,0,1,.141-.157c1.26-.9,3.4-1,4.952-1.188,1.577-.189,3.165-.309,4.754-.4,3.413-.186,6.84-.216,10.257-.116l1.78-6.171,8.713-8.234c.55-.5,2.626,1.162,2.165,1.63l-8.17,7.748-1.417,5.158C327.005,153.387,328.748,153.526,330.474,153.76Z" style="fill: #e85d64"/>
      <polygon points="371.618 199.005 265.969 199.005 318.793 217.276 371.618 199.005" style="fill: #e85d64"/>
      <g>
        <path d="M382.2,134.5l-.374-4.635-4.736-.366a73.427,73.427,0,0,0-13.341.163c4.116,29.6-9.8,57.276-35.726,68.211-.112.047-.226.092-.338.138l-.167,2.613C361.366,197.223,385.049,169.844,382.2,134.5Z" style="fill: #e85d64"/>
        <path d="M273.838,129.658a73.417,73.417,0,0,0-13.34-.163l-4.737.366-.373,4.635c-2.831,35.107,20.511,62.353,53.991,66.052l-.234-2.861C283.489,186.631,269.745,159.1,273.838,129.658Z" style="fill: #e85d64"/>
        <path d="M363.748,129.658a79.766,79.766,0,0,0-4.9-18.437L357.1,106.81l-4.067,1.294a58.578,58.578,0,0,0-14.41,6.841,68.849,68.849,0,0,1,6.191,19.6A65.013,65.013,0,0,1,363.748,129.658Z" style="fill: #e85d64"/>
        <path d="M329.95,188.789l-1.864,2.932-.4,6.286c.112-.046.226-.091.338-.138,25.927-10.935,39.842-38.612,35.726-68.211a65.013,65.013,0,0,0-18.939,4.886A68.945,68.945,0,0,1,329.95,188.789Z" style="fill: #e82e37"/>
        <path d="M298.969,114.945a58.578,58.578,0,0,0-14.41-6.841l-4.067-1.294-1.751,4.411a79.819,79.819,0,0,0-4.9,18.437,65.013,65.013,0,0,1,18.939,4.886A68.851,68.851,0,0,1,298.969,114.945Z" style="fill: #e85d64"/>
        <path d="M309.145,197.687l-.477-5.855-2.633-4.007c.165.062-.224-.2-.336-1.145l-.053-.466a68.782,68.782,0,0,1-12.869-51.67,65.013,65.013,0,0,0-18.939-4.886C269.745,159.1,283.489,186.631,309.145,197.687Z" style="fill: #e82e37"/>
        <path d="M318.793,137.082a58.5,58.5,0,0,1,19.825-22.137,73.2,73.2,0,0,0-16.211-21.61L318.793,90l-3.613,3.335a73.2,73.2,0,0,0-16.211,21.61A58.489,58.489,0,0,1,318.793,137.082Z" style="fill: #e85d64"/>
        <path d="M305.646,186.214c-.444-3.882-3.521-30.75-3.56-31.048a.348.348,0,0,1,0-.154.354.354,0,0,1,.141-.157c1.26-.9,3.4-1,4.952-1.188,1.577-.189,3.165-.309,4.754-.4,3.413-.186,6.84-.216,10.257-.116l1.78-6.171,8.713-8.234c.55-.5,2.626,1.162,2.165,1.63l-8.17,7.748-1.417,5.158c1.741.1,3.484.239,5.21.473a22.851,22.851,0,0,1,2.816.523,4.54,4.54,0,0,1,1.408.584c.046.032.092.065.137.1a.227.227,0,0,1,.024.142c-.076.544-3.932,31.611-3.932,31.611.253-.206-.436,1.056-.3,1l-.678,1.065a68.535,68.535,0,0,0,8.668-73.844,58.5,58.5,0,0,0-19.825,22.137,58.489,58.489,0,0,0-19.824-22.137,68.462,68.462,0,0,0,6.677,71.269Z" style="fill: #e8000c"/>
      </g>
    </g>
  </g>
</svg>
