<svg xmlns="http://www.w3.org/2000/svg" viewBox="0 0 896 31.189">
  <title>divider</title>
  <rect x="126" y="16.28" width="770" height="1.5" style="fill: #e5959d"/>
  <g>
    <g>
      <path d="M136.167,130.678a.5.5,0,0,0-.5-.332,1.226,1.226,0,0,0-.829.387,12.7,12.7,0,0,1-3.239,2.284c-.365.178-.71.326-1.041.45q.225-.882.476-1.663.442-1.374,1.022-2.911a22.628,22.628,0,0,0,.8-2.471,1.436,1.436,0,0,0-.156-1.222,1.364,1.364,0,0,0-1.134-.416,4.376,4.376,0,0,0-1.951.58,9.944,9.944,0,0,0-2.441,1.941,19.039,19.039,0,0,0-2.616,3.529q.336-1.11.649-1.866t.778-1.764a11.448,11.448,0,0,0,.764-1.815c.05-.235.016-.395-.1-.479a1.261,1.261,0,0,0-.679-.126,3.017,3.017,0,0,0-1.522.34,2.565,2.565,0,0,0-.971,1.072,23.8,23.8,0,0,0-1.958,5c-.026.022-.051.043-.076.067a11.586,11.586,0,0,1-2.951,2.08,6.518,6.518,0,0,1-2.752.794q-1.766,0-2.148-1.16A11.44,11.44,0,0,0,118.239,131a5.218,5.218,0,0,0,1.883-2.988,2.707,2.707,0,0,0-.381-2.356,2.6,2.6,0,0,0-2.16-.87,6.03,6.03,0,0,0-3.124.882,8.179,8.179,0,0,0-2.535,2.382,8.8,8.8,0,0,0-1.42,3.239c-.032.154-.059.3-.082.452a9.973,9.973,0,0,1-2.548,1.666,7.492,7.492,0,0,1-3.011.706,2.951,2.951,0,0,1-1.845-.454,1.1,1.1,0,0,1-.409-1.16,4.009,4.009,0,0,1,1.987-2.23,24.5,24.5,0,0,1,4.254-2.1,4.213,4.213,0,0,0,1.356-.807,2.37,2.37,0,0,0,.646-1.26,1.649,1.649,0,0,0-.034-1.084.631.631,0,0,0-.593-.353,2.637,2.637,0,0,0-.639.1q-.387.1-.519.126a4.921,4.921,0,0,1-1,.2q-.732,0-1.787-.075t-1.453-.1q-1.9-.175-3.063-.176a1.142,1.142,0,0,0-.893.466,2.446,2.446,0,0,0-.518,1.071,1.514,1.514,0,0,0,.079,1,.725.725,0,0,0,.761.391l4.156-.1a19.24,19.24,0,0,0-4.357,2.47,5.145,5.145,0,0,0-1.963,2.949,2.862,2.862,0,0,0,.242,2,3.27,3.27,0,0,0,1.628,1.412,7,7,0,0,0,2.865.517,9.864,9.864,0,0,0,4.132-.883A11.359,11.359,0,0,0,110.6,134.3a3.4,3.4,0,0,0,.526.921,4.6,4.6,0,0,0,3.8,1.436,8.491,8.491,0,0,0,3.846-.957,14.384,14.384,0,0,0,2.133-1.3,4.977,4.977,0,0,0,.02,1.245,1.062,1.062,0,0,0,1.134,1.008,1.762,1.762,0,0,0,1.236-.415,5.127,5.127,0,0,0,.983-1.6,21.745,21.745,0,0,1,1.617-2.924,18.052,18.052,0,0,1,1.684-2.231q.771-.845,1.1-.844.278,0,.192.4-.119.555-.849,2.571a28.679,28.679,0,0,0-1.06,3.327,1.679,1.679,0,0,0,.105,1.286,1.255,1.255,0,0,0,1.118.428,2.691,2.691,0,0,0,.764-.1,9.672,9.672,0,0,0,2.955-.953,13.639,13.639,0,0,0,3.381-2.3,3.165,3.165,0,0,0,.89-1.716A1.582,1.582,0,0,0,136.167,130.678Zm-22.545.282a6.149,6.149,0,0,1,1.2-2.622,2.4,2.4,0,0,1,1.806-1.084.748.748,0,0,1,.657.29.955.955,0,0,1,.1.769,2.715,2.715,0,0,1-1.2,1.638,7.205,7.205,0,0,1-2.57,1.059Z" transform="translate(-64 -113.245)" style="fill: #e85d64"/>
      <path d="M184.475,128.409c-2.636,1.674-4.571,4.4-7.61,5.611a7.648,7.648,0,0,1,1.16-1.666,16.105,16.105,0,0,0,2.871-4.191,2.354,2.354,0,0,0-2.578-3.433,4.776,4.776,0,0,0-2.327.972c-.543.386-1.054.817-1.671,1.3-.018-.328-.012-.529-.043-.723a5.577,5.577,0,0,0-.145-.558c-1.1-.607-1.475-.556-2.048.344a4.479,4.479,0,0,0-.7,1.49,7,7,0,0,1-2.941,4.158,9.92,9.92,0,0,1-3.33,2.106,3.182,3.182,0,0,1,.354-2.191q2.746-6.727,5.512-13.447a7.578,7.578,0,0,0,.436-1.192,1.214,1.214,0,0,0-.49-1.351,1.368,1.368,0,0,0-1.559-.018,2.13,2.13,0,0,0-.9,1.194q-3.007,7.652-6.011,15.306a2.772,2.772,0,0,1-2.974,1.684,11.356,11.356,0,0,1,1.221-4.466c.392-.986.827-1.961,1.126-2.975a1.224,1.224,0,0,0-.777-1.558,1.126,1.126,0,0,0-1.484.644,14.891,14.891,0,0,0-.759,1.747,15.045,15.045,0,0,1-3.155,5.34,2.741,2.741,0,0,1-2.427,1.088,2.212,2.212,0,0,1,0-1.759,25.344,25.344,0,0,1,2.21-5c.364-.747.58-1.509-.352-1.965a1.456,1.456,0,0,0-2.061.712,38.6,38.6,0,0,0-2.211,4.931c-.02.017-.04.033-.06.052a12.683,12.683,0,0,1-3.239,2.283c-.119.058-.236.112-.351.165.588-1.944,1.216-3.876,1.963-5.77a8.083,8.083,0,0,0,.59-2.732c.022-.741-.135-1.394-.969-1.567a1.4,1.4,0,0,0-1.636.922,15.071,15.071,0,0,0-.767,2.16c-.83,3.1-2.978,5.186-5.385,7.068a2.234,2.234,0,0,1-2.324.559c-.925-1.08-.752-2.422-.518-3.7A24.56,24.56,0,0,1,143.4,118.8a10.065,10.065,0,0,1,1.856-1.738c1.588-1.163,2.758-.882,3.794.8.416.676.729,1.471,1.641,1.63a1.934,1.934,0,0,0,1.05-2.975,5.265,5.265,0,0,0-7.179-2.4,9.254,9.254,0,0,0-2.518,1.723,24.794,24.794,0,0,0-7.582,16.272,4.5,4.5,0,0,0,2.16,4.6c1.7.951,3.223.2,4.638-.751.941-.63,1.8-1.378,2.782-2.136a11.77,11.77,0,0,1-.629,2.549c-.164.747-.43,1.478-.522,2.231-.086.7-.172,1.573.736,1.819.879.239,1.262-.527,1.62-1.151a4.984,4.984,0,0,0,.4-1.07q.309-1.053.613-2.108a10.319,10.319,0,0,0,1.558-.631,16.407,16.407,0,0,0,2.057-1.218c-.149,1.923,1.163,2.944,3.221,2.58a7.051,7.051,0,0,0,3.928-2.454c.517,3.021,1.485,3.213,5.051,1.157a2.4,2.4,0,0,0,3.1,1.2,14.012,14.012,0,0,0,3.474-2.021c-.778,1.672-1.445,3.081-2.091,4.5a15.592,15.592,0,0,0-1.329,3.439c-.123.637-.146,1.33.6,1.643a1.6,1.6,0,0,0,1.866-.424,4.336,4.336,0,0,0,.907-1.665c.992-2.807,2.082-5.572,3.34-8.272a15.449,15.449,0,0,1,3.544-5.1,3.035,3.035,0,0,1,2.483-1.055c.123.857-.463,1.308-.851,1.827a38.982,38.982,0,0,0-3.088,4.055c-1.015,1.8-.152,3.238,1.924,3.237a5.123,5.123,0,0,0,2.554-.7,33.819,33.819,0,0,0,6.334-5.314C185.694,130.081,185.485,129.106,184.475,128.409Z" transform="translate(-64 -113.245)" style="fill: #e8000c"/>
    </g>
    <g>
      <path d="M94.018,123.758l-.089-1.095-1.119-.087a17.387,17.387,0,0,0-3.152.039,18.854,18.854,0,0,0-1.158-4.356l-.414-1.043-.961.306a13.869,13.869,0,0,0-3.405,1.617,17.279,17.279,0,0,0-3.83-5.106l-.854-.788-.854.788a17.3,17.3,0,0,0-3.83,5.106,13.852,13.852,0,0,0-3.405-1.617l-.961-.306-.413,1.043a18.857,18.857,0,0,0-1.159,4.356,17.385,17.385,0,0,0-3.152-.039l-1.119.087-.088,1.095c-.609,7.555,3.911,13.568,10.7,15.242h-8.2l12.481,4.317L91.518,139h-8.2C90.107,137.326,94.627,131.313,94.018,123.758ZM81.8,128.31a5.3,5.3,0,0,1,.665.123,1.066,1.066,0,0,1,.333.138l.033.024a.058.058,0,0,1,0,.033c-.018.129-.929,7.469-.929,7.469.06-.048-.1.25-.07.238l-.161.251-.44.693-.095,1.485-.015.236h-4.34l-.025-.311-.113-1.384-.622-.947c.039.015-.053-.047-.08-.27l-.012-.11c-.105-.917-.832-7.266-.841-7.336a.06.06,0,0,1,.034-.074,2.71,2.71,0,0,1,1.17-.28c.372-.045.748-.073,1.123-.094.806-.044,1.616-.051,2.424-.027l.42-1.458,2.059-1.946c.13-.118.62.275.511.386l-1.93,1.83-.335,1.219C80.977,128.222,81.388,128.254,81.8,128.31Z" transform="translate(-64 -113.245)" style="fill: #e85d64"/>
      <polygon points="27.518 25.755 2.555 25.755 15.036 30.073 27.518 25.755" style="fill: #e85d64"/>
      <g>
        <path d="M94.018,123.758l-.089-1.095-1.119-.087a17.387,17.387,0,0,0-3.152.039c.973,6.994-2.315,13.533-8.441,16.117l-.08.032-.04.618A14.076,14.076,0,0,0,94.018,123.758Z" transform="translate(-64 -113.245)" style="fill: #e85d64"/>
        <path d="M68.414,122.615a17.385,17.385,0,0,0-3.152-.039l-1.119.087-.088,1.095a14.069,14.069,0,0,0,12.757,15.607l-.055-.676C70.695,136.076,67.447,129.571,68.414,122.615Z" transform="translate(-64 -113.245)" style="fill: #e85d64"/>
        <path d="M89.658,122.615a18.854,18.854,0,0,0-1.158-4.356l-.414-1.043-.961.306a13.869,13.869,0,0,0-3.405,1.617,16.213,16.213,0,0,1,1.463,4.63A15.366,15.366,0,0,1,89.658,122.615Z" transform="translate(-64 -113.245)" style="fill: #e85d64"/>
        <path d="M81.672,136.586l-.44.693-.095,1.485.08-.032c6.126-2.584,9.414-9.123,8.441-16.117a15.366,15.366,0,0,0-4.475,1.154A16.286,16.286,0,0,1,81.672,136.586Z" transform="translate(-64 -113.245)" style="fill: #e82e37"/>
        <path d="M74.352,119.139a13.852,13.852,0,0,0-3.405-1.617l-.961-.306-.413,1.043a18.857,18.857,0,0,0-1.159,4.356,15.366,15.366,0,0,1,4.475,1.154A16.276,16.276,0,0,1,74.352,119.139Z" transform="translate(-64 -113.245)" style="fill: #e85d64"/>
        <path d="M76.757,138.689l-.113-1.384-.622-.947c.039.015-.053-.047-.08-.27l-.012-.11a16.25,16.25,0,0,1-3.041-12.209,15.366,15.366,0,0,0-4.475-1.154C67.447,129.571,70.695,136.076,76.757,138.689Z" transform="translate(-64 -113.245)" style="fill: #e82e37"/>
        <path d="M79.036,124.369a13.816,13.816,0,0,1,4.684-5.23,17.279,17.279,0,0,0-3.83-5.106l-.854-.788-.854.788a17.3,17.3,0,0,0-3.83,5.106A13.816,13.816,0,0,1,79.036,124.369Z" transform="translate(-64 -113.245)" style="fill: #e85d64"/>
        <path d="M75.93,135.978c-.105-.917-.832-7.266-.841-7.336a.06.06,0,0,1,.034-.074,2.71,2.71,0,0,1,1.17-.28c.372-.045.748-.073,1.123-.094.806-.044,1.616-.051,2.424-.027l.42-1.458,2.059-1.946c.13-.118.62.275.511.386l-1.93,1.83-.335,1.219c.412.024.823.056,1.231.112a5.3,5.3,0,0,1,.665.123,1.066,1.066,0,0,1,.333.138l.033.024a.058.058,0,0,1,0,.033c-.018.129-.929,7.469-.929,7.469.06-.048-.1.25-.07.238l-.161.251a16.19,16.19,0,0,0,2.048-17.447,13.816,13.816,0,0,0-4.684,5.23,13.816,13.816,0,0,0-4.684-5.23,16.174,16.174,0,0,0,1.578,16.839Z" transform="translate(-64 -113.245)" style="fill: #e8000c"/>
      </g>
    </g>
  </g>
</svg>
