<svg xmlns="http://www.w3.org/2000/svg" viewBox="0 0 896 31.784">
  <title>divider</title>
  <rect x="194" y="16.484" width="702" height="1.5" style="fill: #e5959d"/>
  <g>
    <g>
      <path d="M203.384,130.676a.51.51,0,0,0-.511-.342,1.263,1.263,0,0,0-.853.4,13.075,13.075,0,0,1-3.332,2.349c-.375.183-.73.336-1.07.463q.231-.907.489-1.711.456-1.413,1.052-2.994a23.654,23.654,0,0,0,.825-2.541,1.483,1.483,0,0,0-.161-1.258,1.4,1.4,0,0,0-1.166-.428,4.5,4.5,0,0,0-2.007.6,10.269,10.269,0,0,0-2.511,2,19.624,19.624,0,0,0-2.691,3.63q.346-1.14.667-1.919t.8-1.815a11.8,11.8,0,0,0,.786-1.867c.051-.241.017-.406-.1-.492a1.29,1.29,0,0,0-.7-.13,3.109,3.109,0,0,0-1.566.35,2.639,2.639,0,0,0-1,1.1,24.533,24.533,0,0,0-2.014,5.143c-.026.022-.053.044-.079.069a11.925,11.925,0,0,1-3.034,2.139,6.711,6.711,0,0,1-2.832.817q-1.815,0-2.209-1.193a11.765,11.765,0,0,0,4.775-2.035,5.372,5.372,0,0,0,1.937-3.073,2.787,2.787,0,0,0-.392-2.424,2.676,2.676,0,0,0-2.221-.895,6.2,6.2,0,0,0-3.214.908,8.414,8.414,0,0,0-2.608,2.45,9.03,9.03,0,0,0-1.46,3.332c-.034.158-.061.312-.085.464a10.243,10.243,0,0,1-2.621,1.714,7.694,7.694,0,0,1-3.1.726,3.033,3.033,0,0,1-1.9-.467,1.13,1.13,0,0,1-.42-1.193,4.12,4.12,0,0,1,2.043-2.294,25.261,25.261,0,0,1,4.376-2.165,4.36,4.36,0,0,0,1.4-.83,2.438,2.438,0,0,0,.664-1.3,1.694,1.694,0,0,0-.035-1.115.649.649,0,0,0-.61-.363,2.717,2.717,0,0,0-.657.1c-.266.069-.443.113-.533.13a5.057,5.057,0,0,1-1.03.207q-.751,0-1.837-.078t-1.495-.1q-1.958-.181-3.151-.182a1.173,1.173,0,0,0-.918.48,2.5,2.5,0,0,0-.533,1.1,1.558,1.558,0,0,0,.081,1.024.747.747,0,0,0,.783.4l4.274-.1a19.813,19.813,0,0,0-4.481,2.541,5.289,5.289,0,0,0-2.019,3.034,2.941,2.941,0,0,0,.249,2.061,3.364,3.364,0,0,0,1.675,1.452,7.2,7.2,0,0,0,2.946.532,10.147,10.147,0,0,0,4.251-.908,11.683,11.683,0,0,0,2.785-1.776,3.488,3.488,0,0,0,.542.947,4.737,4.737,0,0,0,3.912,1.478,8.725,8.725,0,0,0,3.956-.986,14.79,14.79,0,0,0,2.195-1.332,5.112,5.112,0,0,0,.02,1.28,1.094,1.094,0,0,0,1.167,1.038,1.809,1.809,0,0,0,1.27-.428,5.248,5.248,0,0,0,1.012-1.647,22.463,22.463,0,0,1,1.663-3.007,18.555,18.555,0,0,1,1.732-2.295q.793-.869,1.131-.869c.19,0,.256.139.2.415a27.312,27.312,0,0,1-.873,2.645,29.489,29.489,0,0,0-1.09,3.422,1.732,1.732,0,0,0,.108,1.323,1.291,1.291,0,0,0,1.15.441,2.793,2.793,0,0,0,.785-.1,9.987,9.987,0,0,0,3.041-.981,14.068,14.068,0,0,0,3.477-2.362,3.259,3.259,0,0,0,.916-1.765A1.629,1.629,0,0,0,203.384,130.676Zm-23.19.29a6.321,6.321,0,0,1,1.234-2.7,2.47,2.47,0,0,1,1.858-1.115.767.767,0,0,1,.675.3.977.977,0,0,1,.1.791,2.8,2.8,0,0,1-1.239,1.686,7.427,7.427,0,0,1-2.643,1.089Z" transform="translate(-64 -113.041)" style="fill: #e85d64"/>
      <path d="M253.076,128.342c-2.712,1.722-4.7,4.525-7.828,5.772a7.848,7.848,0,0,1,1.193-1.715,16.573,16.573,0,0,0,2.953-4.31c.834-2.066-.429-3.735-2.652-3.531a4.908,4.908,0,0,0-2.394,1c-.558.4-1.084.84-1.718,1.337-.018-.338-.012-.544-.045-.744a5.51,5.51,0,0,0-.148-.574c-1.13-.624-1.518-.572-2.108.354a4.623,4.623,0,0,0-.723,1.532,7.2,7.2,0,0,1-3.024,4.278,10.234,10.234,0,0,1-3.426,2.166,3.281,3.281,0,0,1,.364-2.254q2.826-6.919,5.67-13.832a7.673,7.673,0,0,0,.448-1.226,1.249,1.249,0,0,0-.5-1.39,1.409,1.409,0,0,0-1.6-.018,2.2,2.2,0,0,0-.926,1.228q-3.093,7.872-6.183,15.744a2.851,2.851,0,0,1-3.059,1.732,11.682,11.682,0,0,1,1.255-4.594c.4-1.013.852-2.016,1.159-3.06a1.259,1.259,0,0,0-.8-1.6,1.157,1.157,0,0,0-1.526.662,15.4,15.4,0,0,0-.78,1.8,15.468,15.468,0,0,1-3.246,5.493,2.818,2.818,0,0,1-2.5,1.119,2.278,2.278,0,0,1,0-1.809,26.083,26.083,0,0,1,2.273-5.146c.375-.768.6-1.551-.362-2.02a1.5,1.5,0,0,0-2.12.732,39.853,39.853,0,0,0-2.275,5.072l-.061.053a13.058,13.058,0,0,1-3.332,2.349c-.122.06-.242.115-.361.169.605-2,1.251-3.986,2.019-5.935a8.305,8.305,0,0,0,.607-2.81c.022-.762-.139-1.434-1-1.611a1.435,1.435,0,0,0-1.682.948,15.526,15.526,0,0,0-.789,2.222c-.854,3.186-3.063,5.334-5.539,7.27a2.3,2.3,0,0,1-2.391.575c-.951-1.111-.774-2.491-.533-3.809a25.276,25.276,0,0,1,5.436-11.5,10.372,10.372,0,0,1,1.909-1.787c1.634-1.2,2.838-.907,3.9.824.428.7.75,1.513,1.688,1.677a1.989,1.989,0,0,0,1.08-3.06,5.416,5.416,0,0,0-7.385-2.468,9.519,9.519,0,0,0-2.589,1.772,25.5,25.5,0,0,0-7.8,16.738,4.625,4.625,0,0,0,2.221,4.731c1.747.978,3.316.2,4.771-.772.969-.649,1.856-1.418,2.862-2.2a12.177,12.177,0,0,1-.647,2.623c-.169.767-.442,1.519-.537,2.294-.088.722-.177,1.618.757,1.871.9.246,1.3-.542,1.666-1.184a5.051,5.051,0,0,0,.413-1.1q.319-1.085.631-2.169a10.6,10.6,0,0,0,1.6-.649,16.66,16.66,0,0,0,2.115-1.253c-.152,1.978,1.2,3.028,3.315,2.654a7.262,7.262,0,0,0,4.04-2.524c.531,3.107,1.527,3.3,5.195,1.19a2.47,2.47,0,0,0,3.186,1.238,14.417,14.417,0,0,0,3.573-2.078c-.8,1.72-1.486,3.169-2.15,4.627a16.016,16.016,0,0,0-1.368,3.538c-.126.655-.15,1.368.619,1.69a1.641,1.641,0,0,0,1.919-.436,4.468,4.468,0,0,0,.933-1.713c1.02-2.887,2.141-5.732,3.435-8.509a15.9,15.9,0,0,1,3.646-5.241,3.12,3.12,0,0,1,2.554-1.086c.127.882-.476,1.346-.875,1.879a40.343,40.343,0,0,0-3.177,4.171c-1.044,1.857-.156,3.331,1.979,3.33a5.273,5.273,0,0,0,2.628-.72c2.508-1.418,4.456-3.517,6.515-5.466C254.329,130.062,254.115,129.059,253.076,128.342Z" transform="translate(-64 -113.041)" style="fill: #e8000c"/>
    </g>
    <g>
      <polygon points="96.093 25.959 71.516 25.959 83.804 29.833 96.093 25.959" style="fill: #e85d64"/>
      <path d="M162.554,123.618l-.087-1.079-1.1-.085a17.122,17.122,0,0,0-3.1.038c.957,6.886-2.28,13.324-8.311,15.868l-.079.032-.039.608A13.857,13.857,0,0,0,162.554,123.618Z" transform="translate(-64 -113.041)" style="fill: #e85d64"/>
      <path d="M137.346,122.492a17.122,17.122,0,0,0-3.1-.038l-1.1.085-.087,1.079a13.851,13.851,0,0,0,12.56,15.365l-.054-.665C139.591,135.746,136.394,129.34,137.346,122.492Z" transform="translate(-64 -113.041)" style="fill: #e85d64"/>
      <path d="M158.262,122.492a18.58,18.58,0,0,0-1.141-4.289l-.407-1.026-.946.3a13.634,13.634,0,0,0-3.352,1.591,16.025,16.025,0,0,1,1.44,4.56A15.118,15.118,0,0,1,158.262,122.492Z" transform="translate(-64 -113.041)" style="fill: #e85d64"/>
      <path d="M150.4,136.248l-.434.682-.094,1.462.079-.032c6.031-2.544,9.268-8.982,8.311-15.868a15.118,15.118,0,0,0-4.406,1.137A16.041,16.041,0,0,1,150.4,136.248Z" transform="translate(-64 -113.041)" style="fill: #e82e37"/>
      <path d="M143.192,119.069a13.617,13.617,0,0,0-3.352-1.591l-.946-.3-.407,1.026a18.58,18.58,0,0,0-1.141,4.289,15.118,15.118,0,0,1,4.406,1.137A16.025,16.025,0,0,1,143.192,119.069Z" transform="translate(-64 -113.041)" style="fill: #e85d64"/>
      <path d="M145.56,138.318l-.111-1.363-.613-.932c.038.015-.052-.047-.078-.266l-.012-.108a16,16,0,0,1-2.994-12.02,15.118,15.118,0,0,0-4.406-1.137C136.394,129.34,139.591,135.746,145.56,138.318Z" transform="translate(-64 -113.041)" style="fill: #e82e37"/>
      <path d="M147.8,124.219a13.611,13.611,0,0,1,4.612-5.15,17.05,17.05,0,0,0-3.771-5.027l-.841-.776-.841.776a17.05,17.05,0,0,0-3.771,5.027A13.611,13.611,0,0,1,147.8,124.219Z" transform="translate(-64 -113.041)" style="fill: #e85d64"/>
      <path d="M144.746,135.649c-.1-.9-.819-7.154-.829-7.223a.087.087,0,0,1,0-.036.076.076,0,0,1,.033-.036,2.644,2.644,0,0,1,1.152-.277c.367-.044.736-.072,1.106-.092.794-.043,1.591-.05,2.386-.027l.414-1.435,2.027-1.916c.128-.116.611.271.5.38l-1.9,1.8-.33,1.2c.405.023.811.056,1.212.11a5.515,5.515,0,0,1,.655.121,1.068,1.068,0,0,1,.328.136l.032.024a.055.055,0,0,1,0,.033c-.017.126-.914,7.353-.914,7.353.059-.047-.1.246-.07.234l-.157.248a15.947,15.947,0,0,0,2.016-17.179,13.611,13.611,0,0,0-4.612,5.15,13.611,13.611,0,0,0-4.612-5.15,15.93,15.93,0,0,0,1.554,16.58Z" transform="translate(-64 -113.041)" style="fill: #e8000c"/>
    </g>
  </g>
  <rect y="16.484" width="65" height="1.5" style="fill: #e5959d"/>
</svg>
