<svg xmlns="http://www.w3.org/2000/svg" viewBox="0 0 1024 370">
  <title>zengulp</title>
  <g>
    <g>
      <path d="M582.672,196.322a3.056,3.056,0,0,0-3.057-2.044,7.565,7.565,0,0,0-5.108,2.385,78.194,78.194,0,0,1-19.939,14.056c-2.244,1.1-4.371,2.01-6.407,2.772q1.383-5.427,2.93-10.237,2.727-8.455,6.292-17.923a139.908,139.908,0,0,0,4.939-15.207q1.056-4.965-.96-7.526t-6.982-2.561q-5.121,0-12.009,3.57T527.34,175.555a117.373,117.373,0,0,0-16.1,21.725q2.069-6.826,3.992-11.483t4.792-10.863q4.174-8.688,4.7-11.173.462-2.171-.614-2.948t-4.18-.776a18.573,18.573,0,0,0-9.368,2.095,15.774,15.774,0,0,0-5.98,6.595,146.641,146.641,0,0,0-12.056,30.78c-.156.131-.312.265-.469.411a71.2,71.2,0,0,1-18.161,12.8q-9.963,4.887-16.945,4.888-10.863,0-13.224-7.138,19.265-4.5,28.581-12.182T483.9,179.9q1.946-9.155-2.347-14.509t-13.294-5.354a37.112,37.112,0,0,0-19.232,5.431,50.344,50.344,0,0,0-15.609,14.665,54.063,54.063,0,0,0-8.738,19.94c-.2.947-.363,1.869-.5,2.779a61.386,61.386,0,0,1-15.688,10.256,46.049,46.049,0,0,1-18.536,4.344q-7.912,0-11.355-2.793a6.758,6.758,0,0,1-2.517-7.137q1.451-6.828,12.23-13.734a151.256,151.256,0,0,1,26.186-12.957,26,26,0,0,0,8.348-4.966,14.611,14.611,0,0,0,3.977-7.758q.957-4.5-.211-6.673a3.874,3.874,0,0,0-3.651-2.173,16.315,16.315,0,0,0-3.934.621q-2.384.623-3.19.776a30.082,30.082,0,0,1-6.161,1.241q-4.5,0-11-.465t-8.945-.621q-11.721-1.084-18.857-1.086a7.035,7.035,0,0,0-5.5,2.871,15.009,15.009,0,0,0-3.186,6.595,9.336,9.336,0,0,0,.481,6.129q1.239,2.56,4.688,2.405l25.581-.62q-16.914,7.3-26.819,15.207T354.037,210.47a17.621,17.621,0,0,0,1.49,12.336q2.939,5.51,10.024,8.69t17.635,3.181a60.732,60.732,0,0,0,25.439-5.431,70.146,70.146,0,0,0,16.668-10.631,20.951,20.951,0,0,0,3.24,5.666q7.118,8.844,23.414,8.844a52.224,52.224,0,0,0,23.676-5.9,88.583,88.583,0,0,0,13.133-7.973,30.805,30.805,0,0,0,.122,7.662q1.084,6.208,6.983,6.207a10.831,10.831,0,0,0,7.605-2.56q2.791-2.56,6.051-9.854a134.915,134.915,0,0,1,9.956-18,111.256,111.256,0,0,1,10.367-13.733q4.749-5.2,6.769-5.2,1.705,0,1.179,2.483-.726,3.415-5.227,15.828-5.21,14.279-6.526,20.484-1.12,5.277.646,7.914t6.887,2.637a16.579,16.579,0,0,0,4.7-.611,59.666,59.666,0,0,0,18.2-5.866q12.876-6.471,20.809-14.14,4.03-3.746,5.483-10.564A9.758,9.758,0,0,0,582.672,196.322Zm-138.788,1.734a37.819,37.819,0,0,1,7.387-16.139q5.376-6.671,11.117-6.673a4.6,4.6,0,0,1,4.044,1.785,5.869,5.869,0,0,1,.622,4.733q-1.219,5.744-7.419,10.087a44.417,44.417,0,0,1-15.817,6.517Z" style="fill: #e85d64"/>
      <path d="M880.061,182.352c-16.228,10.306-28.14,27.08-46.847,34.543,1.867-3.991,4.508-7.121,7.138-10.259,6.727-8.027,13.689-15.92,17.675-25.795,4.992-12.369-2.567-22.355-15.872-21.133-5.4.5-10.026,2.925-14.326,5.982-3.343,2.376-6.488,5.03-10.285,8-.108-2.018-.071-3.253-.267-4.449a33.875,33.875,0,0,0-.887-3.434c-6.761-3.736-9.085-3.425-12.613,2.115-1.81,2.843-3.724,5.948-4.327,9.171-2.134,11.421-9.6,18.805-18.1,25.6-6.262,5-12.205,10.505-20.5,12.963-1.444-5.344.52-9.432,2.177-13.489q16.916-41.411,33.933-82.777a46.42,46.42,0,0,0,2.684-7.337c.723-3.255-.061-6.269-3.014-8.32-3.162-2.2-6.362-1.915-9.6-.109-2.944,1.641-4.378,4.374-5.546,7.346q-18.508,47.112-37,94.228c-2.692,6.893-9.7,11.217-18.307,10.364-.237-9.913,3.976-18.612,7.514-27.493C736.1,182,738.779,176,740.617,169.758c1.205-4.092-.516-7.9-4.783-9.593-4.142-1.643-7.238.449-9.135,3.966a92.572,92.572,0,0,0-4.671,10.753c-4.643,12.051-10.233,23.558-19.424,32.876-4.027,4.083-8.48,7.716-14.943,6.7-2.136-3.829-.823-7.328.029-10.826,2.7-11.076,8.686-20.7,13.6-30.8,2.241-4.6,3.573-9.285-2.167-12.092-5.314-2.6-10.1-.611-12.69,4.379a238.68,238.68,0,0,0-13.611,30.354c-.122.106-.244.207-.366.321a78.182,78.182,0,0,1-19.94,14.056c-.735.36-1.451.69-2.164,1.014,3.619-11.968,7.491-23.857,12.084-35.52a49.839,49.839,0,0,0,3.636-16.816c.132-4.564-.833-8.584-5.97-9.645-4.782-.987-8.219,1.479-10.066,5.675a92.771,92.771,0,0,0-4.723,13.3c-5.11,19.067-18.331,31.925-33.149,43.508-3.9,3.047-8.287,5.727-14.309,3.443-5.693-6.653-4.63-14.909-3.187-22.8,4.716-25.777,16.071-48.577,32.534-68.822a61.881,61.881,0,0,1,11.423-10.7c9.779-7.157,16.98-5.428,23.356,4.93,2.561,4.161,4.491,9.054,10.1,10.034,8.329-3.43,10.7-10.274,6.464-18.313-8.882-16.853-27.041-22.929-44.194-14.769a56.962,56.962,0,0,0-15.5,10.606c-28.135,27.512-43.614,61.106-46.677,100.174-.887,11.316,2.361,22.184,13.3,28.31,10.451,5.854,19.843,1.214,28.553-4.62,5.794-3.882,11.1-8.486,17.126-13.15-.1,5.972-2.768,10.648-3.874,15.692-1.008,4.595-2.645,9.094-3.212,13.732-.528,4.32-1.059,9.684,4.53,11.2,5.411,1.467,7.766-3.244,9.972-7.088a30.477,30.477,0,0,0,2.473-6.586q1.906-6.483,3.776-12.976a63.572,63.572,0,0,0,9.591-3.889,100.716,100.716,0,0,0,12.66-7.494c-.912,11.837,7.163,18.119,19.834,15.879,9.735-1.721,17.059-7.453,24.181-15.106,3.181,18.6,9.136,19.778,31.091,7.123,4.239,7.684,10.639,9.861,19.064,7.413,7.6-2.21,13.5-7.323,21.387-12.44-4.79,10.292-8.892,18.965-12.868,27.694-3.142,6.9-6.734,13.657-8.186,21.17-.757,3.919-.9,8.189,3.7,10.117,4.265,1.788,8.225.735,11.486-2.61,2.819-2.892,4.273-6.534,5.586-10.253,6.1-17.276,12.812-34.3,20.556-50.92,5.469-11.733,12.137-22.632,21.817-31.37,4.213-3.8,8.787-7.364,15.286-6.5.762,5.28-2.851,8.057-5.239,11.25-6.264,8.375-13.842,15.771-19.009,24.959-6.248,11.112-.935,19.935,11.845,19.932a31.574,31.574,0,0,0,15.724-4.31c15.01-8.487,26.67-21.05,38.994-32.713C887.564,192.646,886.279,186.647,880.061,182.352Z" style="fill: #e8000c"/>
    </g>
    <g>
      <path d="M323.2,153.722l-.543-6.743-6.889-.532a106.834,106.834,0,0,0-19.405.238,116,116,0,0,0-7.131-26.818l-2.547-6.416-5.915,1.883a85.15,85.15,0,0,0-20.96,9.95,106.484,106.484,0,0,0-23.58-31.433L230.972,89l-5.256,4.851a106.463,106.463,0,0,0-23.579,31.433,85.157,85.157,0,0,0-20.961-9.95l-5.915-1.883-2.547,6.416a116,116,0,0,0-7.131,26.818,106.832,106.832,0,0,0-19.4-.238l-6.889.532-.543,6.743c-3.75,46.506,24.077,83.528,65.862,93.83H154.137l76.835,26.576,76.835-26.576H257.338C299.122,237.249,326.948,200.228,323.2,153.722Zm-75.236,28.02a33.229,33.229,0,0,1,4.1.76,6.6,6.6,0,0,1,2.048.85c.068.046.134.095.2.146a.332.332,0,0,1,.036.206c-.112.791-5.72,45.98-5.72,45.98.368-.3-.635,1.536-.435,1.46l-.986,1.55-2.712,4.265L243.9,246.1l-.093,1.451H217.1l-.156-1.917-.695-8.516-3.829-5.828c.239.09-.327-.294-.489-1.666l-.077-.678c-.647-5.646-5.121-44.726-5.179-45.16a.512.512,0,0,1,.005-.224.523.523,0,0,1,.2-.229c1.833-1.314,4.949-1.458,7.2-1.727,2.3-.275,4.605-.449,6.915-.575,4.965-.271,9.95-.314,14.921-.169l2.588-8.975L251.18,159.91c.8-.727,3.82,1.69,3.148,2.372l-11.884,11.269-2.06,7.5C242.917,181.2,245.451,181.4,247.962,181.742Z" style="fill: #e85d64"/>
      <polygon points="307.807 247.552 154.137 247.552 230.972 274.128 307.807 247.552" style="fill: #e85d64"/>
      <g>
        <path d="M323.2,153.722l-.543-6.743-6.889-.532a106.834,106.834,0,0,0-19.405.238C302.347,189.738,282.108,230,244.4,245.9c-.163.069-.329.134-.492.2l-.243,3.8C292.9,244.961,327.344,205.137,323.2,153.722Z" style="fill: #e85d64"/>
        <path d="M165.583,146.685a106.832,106.832,0,0,0-19.4-.238l-6.889.532-.543,6.743c-4.117,51.064,29.834,90.7,78.532,96.075l-.339-4.162C179.62,229.554,159.629,189.5,165.583,146.685Z" style="fill: #e85d64"/>
        <path d="M296.361,146.685a116,116,0,0,0-7.131-26.818l-2.547-6.416-5.915,1.883a85.15,85.15,0,0,0-20.96,9.95,100.133,100.133,0,0,1,9,28.507A94.511,94.511,0,0,1,296.361,146.685Z" style="fill: #e85d64"/>
        <path d="M247.2,232.694l-2.712,4.265L243.9,246.1c.163-.067.329-.132.492-.2,37.712-15.9,57.951-56.162,51.965-99.215a94.511,94.511,0,0,0-27.548,7.106C273.091,181.07,265.886,209.586,247.2,232.694Z" style="fill: #e82e37"/>
        <path d="M202.137,125.284a85.157,85.157,0,0,0-20.961-9.95l-5.915-1.883-2.547,6.416a116,116,0,0,0-7.131,26.818,94.511,94.511,0,0,1,27.548,7.106A100.1,100.1,0,0,1,202.137,125.284Z" style="fill: #e85d64"/>
        <path d="M216.939,245.635l-.695-8.516-3.829-5.828c.239.09-.327-.294-.489-1.666l-.077-.678a100.039,100.039,0,0,1-18.718-75.156,94.511,94.511,0,0,0-27.548-7.106C159.629,189.5,179.62,229.554,216.939,245.635Z" style="fill: #e82e37"/>
        <path d="M230.972,157.482a85.078,85.078,0,0,1,28.836-32.2,106.484,106.484,0,0,0-23.58-31.433L230.972,89l-5.256,4.851a106.463,106.463,0,0,0-23.579,31.433A85.083,85.083,0,0,1,230.972,157.482Z" style="fill: #e85d64"/>
        <path d="M211.849,228.947c-.647-5.646-5.121-44.726-5.179-45.16a.512.512,0,0,1,.005-.224.523.523,0,0,1,.2-.229c1.833-1.314,4.949-1.458,7.2-1.727,2.3-.275,4.605-.449,6.915-.575,4.965-.271,9.95-.314,14.921-.169l2.588-8.975L251.18,159.91c.8-.727,3.82,1.69,3.148,2.372l-11.884,11.269-2.06,7.5c2.533.145,5.067.348,7.578.688a33.229,33.229,0,0,1,4.1.76,6.6,6.6,0,0,1,2.048.85c.068.046.134.095.2.146a.332.332,0,0,1,.036.206c-.112.791-5.72,45.98-5.72,45.98.368-.3-.635,1.536-.435,1.46l-.986,1.55c18.686-23.108,25.891-51.624,21.613-78.9a100.133,100.133,0,0,0-9-28.507,85.078,85.078,0,0,0-28.836,32.2,85.083,85.083,0,0,0-28.835-32.2,99.583,99.583,0,0,0,9.712,103.663Z" style="fill: #e8000c"/>
      </g>
    </g>
  </g>
</svg>
