<svg xmlns="http://www.w3.org/2000/svg" viewBox="0 0 896 230.24">
  <title>logotype</title>
  <g>
    <path d="M596.747,207.508a3.665,3.665,0,0,0-3.666-2.452,9.072,9.072,0,0,0-6.125,2.861,93.786,93.786,0,0,1-23.91,16.855c-2.69,1.319-5.241,2.411-7.683,3.325q1.657-6.508,3.513-12.277,3.272-10.14,7.546-21.492,4.893-13.4,5.923-18.236,1.264-5.954-1.152-9.025T562.821,164q-6.141,0-14.4,4.28T530.4,182.605q-9.77,10.049-19.308,26.051,2.481-8.185,4.788-13.77t5.746-13.026q5.005-10.419,5.639-13.4.553-2.6-.737-3.535T521.51,164q-6.887,0-11.233,2.513a18.9,18.9,0,0,0-7.171,7.908,175.793,175.793,0,0,0-14.457,36.91c-.188.157-.375.317-.562.493a85.422,85.422,0,0,1-21.778,15.351q-11.949,5.862-20.321,5.862-13.026,0-15.857-8.56,23.1-5.4,34.273-14.607t13.9-22.051q2.334-10.978-2.815-17.4T459.546,164a44.49,44.49,0,0,0-23.062,6.513,60.358,60.358,0,0,0-18.718,17.585,64.82,64.82,0,0,0-10.479,23.912c-.242,1.135-.435,2.241-.606,3.332a73.6,73.6,0,0,1-18.811,12.3q-11.811,5.211-22.228,5.21-9.49,0-13.617-3.35a8.107,8.107,0,0,1-3.019-8.559q1.74-8.187,14.666-16.468a181.336,181.336,0,0,1,31.4-15.538,31.177,31.177,0,0,0,10.011-5.955,17.525,17.525,0,0,0,4.77-9.3q1.146-5.4-.254-8a4.643,4.643,0,0,0-4.377-2.6,19.559,19.559,0,0,0-4.718.744q-2.857.745-3.825.931a36.083,36.083,0,0,1-7.388,1.488q-5.4,0-13.187-.558t-10.727-.744q-14.055-1.3-22.612-1.3a8.435,8.435,0,0,0-6.593,3.443,18,18,0,0,0-3.821,7.908,11.2,11.2,0,0,0,.578,7.351q1.485,3.069,5.621,2.884l30.675-.744q-20.282,8.748-32.16,18.236t-14.491,21.771a21.142,21.142,0,0,0,1.787,14.794q3.525,6.608,12.02,10.421T357.53,253.5a72.83,72.83,0,0,0,30.506-6.513,84.08,84.08,0,0,0,19.988-12.748,25.1,25.1,0,0,0,3.885,6.794q8.537,10.607,28.078,10.606a62.613,62.613,0,0,0,28.391-7.071,106.2,106.2,0,0,0,15.748-9.561,36.989,36.989,0,0,0,.147,9.189q1.3,7.444,8.373,7.443,5.764,0,9.12-3.07t7.256-11.817a161.988,161.988,0,0,1,11.939-21.585A133.525,133.525,0,0,1,533.393,198.7q5.7-6.232,8.118-6.234,2.045,0,1.413,2.977-.87,4.1-6.267,18.981-6.249,17.123-7.826,24.563-1.346,6.328.774,9.49t8.259,3.163a19.872,19.872,0,0,0,5.634-.733,71.535,71.535,0,0,0,21.82-7.034q15.441-7.761,24.954-16.957,4.834-4.491,6.575-12.667Q597.759,209.96,596.747,207.508Zm-166.43,2.079a45.349,45.349,0,0,1,8.859-19.353q6.446-8,13.331-8a5.509,5.509,0,0,1,4.849,2.14,7.043,7.043,0,0,1,.747,5.676q-1.464,6.887-8.9,12.1t-18.967,7.816Z" transform="translate(-64 -78.811)" style="fill: #e85d64"/>
    <path d="M953.368,190.755c-19.461,12.359-33.745,32.474-56.178,41.423,2.239-4.786,5.4-8.539,8.559-12.3,8.067-9.625,16.416-19.091,21.195-30.932,5.987-14.833-3.078-26.808-19.032-25.343-6.473.595-12.023,3.509-17.179,7.174-4.009,2.849-7.781,6.032-12.334,9.595-.13-2.421-.086-3.9-.32-5.336a40.5,40.5,0,0,0-1.064-4.117c-8.107-4.481-10.895-4.108-15.125,2.536-2.17,3.409-4.466,7.133-5.188,11-2.559,13.694-11.509,22.55-21.706,30.7-7.51,6-14.636,12.6-24.587,15.545-1.731-6.409.624-11.31,2.612-16.176q20.283-49.657,40.691-99.264a55.666,55.666,0,0,0,3.218-8.8c.867-3.9-.072-7.517-3.614-9.977-3.792-2.634-7.629-2.3-11.512-.131-3.531,1.969-5.25,5.246-6.651,8.81q-22.2,56.495-44.372,112.995c-3.228,8.266-11.631,13.451-21.953,12.428-.285-11.888,4.767-22.319,9.009-32.968,2.9-7.275,6.11-14.472,8.313-21.959,1.445-4.908-.618-9.474-5.735-11.5-4.967-1.971-8.679.538-10.955,4.755a111.092,111.092,0,0,0-5.6,12.9c-5.568,14.451-12.271,28.25-23.293,39.424-4.829,4.9-10.168,9.253-17.919,8.03-2.562-4.592-.987-8.788.035-12.983,3.235-13.282,10.416-24.823,16.313-36.929,2.688-5.516,4.285-11.134-2.6-14.5-6.373-3.117-12.11-.733-15.218,5.251a286.229,286.229,0,0,0-16.321,36.4c-.147.127-.293.248-.44.385a93.736,93.736,0,0,1-23.91,16.855c-.882.433-1.741.828-2.6,1.217,4.339-14.352,8.982-28.609,14.489-42.595a59.729,59.729,0,0,0,4.361-20.165c.158-5.473-1-10.293-7.158-11.566-5.735-1.184-9.857,1.774-12.071,6.805a111.257,111.257,0,0,0-5.664,15.947c-6.128,22.865-21.983,38.284-39.751,52.174-4.674,3.654-9.939,6.868-17.16,4.129-6.827-7.979-5.552-17.879-3.822-27.338,5.656-30.911,19.272-58.252,39.014-82.529a74.21,74.21,0,0,1,13.7-12.826c11.726-8.583,20.362-6.509,28.007,5.912,3.071,4.989,5.386,10.857,12.115,12.033,9.988-4.114,12.831-12.32,7.75-21.961-10.65-20.209-32.426-27.5-52.995-17.71a68.314,68.314,0,0,0-18.585,12.718c-33.739,32.991-52.3,73.276-55.973,120.126-1.064,13.569,2.831,26.6,15.946,33.948,12.533,7.02,23.795,1.456,34.239-5.541,6.949-4.655,13.317-10.176,20.538-15.769-.12,7.162-3.319,12.769-4.646,18.818-1.208,5.511-3.172,10.905-3.852,16.467-.633,5.18-1.269,11.613,5.433,13.431,6.488,1.759,9.313-3.891,11.958-8.5a36.471,36.471,0,0,0,2.965-7.9q2.287-7.773,4.528-15.561a76.118,76.118,0,0,0,11.5-4.663,120.766,120.766,0,0,0,15.181-8.986c-1.094,14.2,8.59,21.727,23.785,19.041,11.673-2.064,20.457-8.937,29-18.114,3.815,22.3,10.957,23.716,37.284,8.541,5.084,9.215,12.758,11.826,22.861,8.889,9.117-2.649,16.185-8.78,25.646-14.917-5.744,12.343-10.662,22.742-15.431,33.21-3.767,8.269-8.075,16.377-9.816,25.386-.908,4.7-1.076,9.82,4.441,12.133,5.114,2.143,9.863.881,13.773-3.13,3.381-3.468,5.124-7.836,6.7-12.295,7.316-20.718,15.363-41.136,24.651-61.063,6.557-14.07,14.554-27.139,26.161-37.617,5.053-4.561,10.538-8.831,18.331-7.794.914,6.331-3.419,9.661-6.282,13.49-7.512,10.043-16.6,18.912-22.8,29.93-7.492,13.325-1.12,23.905,14.205,23.9a37.876,37.876,0,0,0,18.855-5.168c18-10.178,31.982-25.243,46.761-39.229C962.365,203.1,960.824,195.905,953.368,190.755Z" transform="translate(-64 -78.811)" style="fill: #e8000c"/>
  </g>
  <g>
    <path d="M285.6,156.423l-.652-8.086-8.261-.638a128.152,128.152,0,0,0-23.27.285,139.112,139.112,0,0,0-8.551-32.159l-3.054-7.694-7.093,2.258a102.1,102.1,0,0,0-25.135,11.932A127.663,127.663,0,0,0,181.3,84.628L175,78.811l-6.3,5.817a127.663,127.663,0,0,0-28.276,37.693,102.1,102.1,0,0,0-25.135-11.932l-7.093-2.258-3.054,7.694a139.112,139.112,0,0,0-8.551,32.159,128.152,128.152,0,0,0-23.27-.285l-8.261.638-.652,8.086c-4.5,55.769,28.873,100.164,78.98,112.518H82.861L175,300.811l92.139-31.87H206.618C256.723,256.587,290.091,212.191,285.6,156.423Zm-90.222,33.6a39.783,39.783,0,0,1,4.912.912,7.937,7.937,0,0,1,2.456,1.019c.082.056.162.114.24.176a.4.4,0,0,1,.042.247c-.133.949-6.859,55.137-6.859,55.137.442-.359-.761,1.843-.522,1.751l-1.181,1.859-3.253,5.114-.7,10.964-.111,1.739H158.359l-.187-2.3-.834-10.213-4.591-6.989c.287.109-.392-.351-.586-2l-.093-.813c-.775-6.77-6.141-53.634-6.21-54.155a.61.61,0,0,1,.006-.269.621.621,0,0,1,.246-.274c2.2-1.576,5.934-1.748,8.636-2.071,2.752-.33,5.522-.539,8.293-.69,5.954-.324,11.93-.376,17.892-.2l3.1-10.763,15.2-14.363c.959-.872,4.58,2.026,3.775,2.844L188.757,180.2l-2.471,9C189.324,189.373,192.363,189.616,195.373,190.023Z" transform="translate(-64 -78.811)" style="fill: #e85d64"/>
    <polygon points="203.139 190.131 18.861 190.131 111 222 203.139 190.131" style="fill: #e85d64"/>
    <g>
      <path d="M285.6,156.423l-.652-8.086-8.261-.638a128.152,128.152,0,0,0-23.27.285c7.179,51.628-17.091,99.9-62.315,118.977-.2.082-.394.159-.59.241l-.291,4.558C249.258,265.834,290.566,218.078,285.6,156.423Z" transform="translate(-64 -78.811)" style="fill: #e85d64"/>
      <path d="M96.588,147.984a128.152,128.152,0,0,0-23.27-.285l-8.261.638-.652,8.086c-4.937,61.235,35.776,108.759,94.174,115.21l-.407-4.99C113.42,247.359,89.448,199.332,96.588,147.984Z" transform="translate(-64 -78.811)" style="fill: #e85d64"/>
      <path d="M253.412,147.984a139.112,139.112,0,0,0-8.551-32.159l-3.054-7.694-7.093,2.258a102.1,102.1,0,0,0-25.135,11.932,120.081,120.081,0,0,1,10.8,34.185A113.367,113.367,0,0,1,253.412,147.984Z" transform="translate(-64 -78.811)" style="fill: #e85d64"/>
      <path d="M194.461,251.124l-3.253,5.114-.7,10.964c.2-.082.395-.159.59-.241,45.224-19.073,69.494-67.349,62.315-118.977a113.367,113.367,0,0,0-33.034,8.522C225.508,189.218,216.867,223.414,194.461,251.124Z" transform="translate(-64 -78.811)" style="fill: #e82e37"/>
      <path d="M140.421,122.321a102.1,102.1,0,0,0-25.135-11.932l-7.093-2.258-3.054,7.694a139.112,139.112,0,0,0-8.551,32.159,113.367,113.367,0,0,1,33.034,8.522A120.081,120.081,0,0,1,140.421,122.321Z" transform="translate(-64 -78.811)" style="fill: #e85d64"/>
      <path d="M158.172,266.643l-.834-10.213-4.591-6.989c.287.109-.392-.351-.586-2l-.093-.813a119.968,119.968,0,0,1-22.446-90.125,113.367,113.367,0,0,0-33.034-8.522C89.448,199.332,113.42,247.359,158.172,266.643Z" transform="translate(-64 -78.811)" style="fill: #e82e37"/>
      <path d="M175,160.932a102.032,102.032,0,0,1,34.579-38.611A127.663,127.663,0,0,0,181.3,84.628L175,78.811l-6.3,5.817a127.663,127.663,0,0,0-28.276,37.693A102.032,102.032,0,0,1,175,160.932Z" transform="translate(-64 -78.811)" style="fill: #e85d64"/>
      <path d="M152.068,246.631c-.775-6.77-6.141-53.634-6.21-54.155a.61.61,0,0,1,.006-.269.621.621,0,0,1,.246-.274c2.2-1.576,5.934-1.748,8.636-2.071,2.752-.33,5.522-.539,8.293-.69,5.954-.324,11.93-.376,17.892-.2l3.1-10.763,15.2-14.363c.959-.872,4.58,2.026,3.775,2.844L188.757,180.2l-2.471,9c3.038.174,6.077.417,9.087.824a39.783,39.783,0,0,1,4.912.912,7.937,7.937,0,0,1,2.456,1.019c.082.056.162.114.24.176a.4.4,0,0,1,.042.247c-.133.949-6.859,55.137-6.859,55.137.442-.359-.761,1.843-.522,1.751l-1.181,1.859c22.406-27.71,31.047-61.906,25.917-94.618a120.081,120.081,0,0,0-10.8-34.185A102.032,102.032,0,0,0,175,160.932a102.032,102.032,0,0,0-34.579-38.611,119.422,119.422,0,0,0,11.647,124.31Z" transform="translate(-64 -78.811)" style="fill: #e8000c"/>
    </g>
  </g>
</svg>
