<svg xmlns="http://www.w3.org/2000/svg" viewBox="0 0 896 233.429">
  <title>logotype</title>
  <g>
    <path d="M588.264,204.8a3.751,3.751,0,0,0-3.751-2.509q-3.138,0-6.268,2.927a95.957,95.957,0,0,1-24.469,17.249c-2.753,1.35-5.363,2.468-7.862,3.4q1.7-6.66,3.6-12.564,3.348-10.376,7.722-21.994,5.007-13.71,6.061-18.662,1.294-6.093-1.179-9.235t-8.568-3.143q-6.283,0-14.737,4.38t-18.446,14.663q-10,10.284-19.758,26.66,2.538-8.378,4.9-14.091t5.881-13.331q5.122-10.662,5.77-13.711.565-2.664-.754-3.617t-5.13-.953q-7.048,0-11.5,2.571a19.354,19.354,0,0,0-7.338,8.093,179.985,179.985,0,0,0-14.795,37.772c-.191.161-.383.325-.575.5a87.363,87.363,0,0,1-22.287,15.71q-12.228,6-20.794,6-13.331,0-16.228-8.76,23.64-5.52,35.073-14.948t14.223-22.566q2.388-11.233-2.881-17.8t-16.313-6.57a45.533,45.533,0,0,0-23.6,6.665,61.768,61.768,0,0,0-19.155,18,66.349,66.349,0,0,0-10.724,24.47c-.247,1.162-.445,2.294-.619,3.41A75.336,75.336,0,0,1,374.509,225.4q-12.087,5.333-22.748,5.332-9.711,0-13.934-3.428a8.294,8.294,0,0,1-3.089-8.759q1.781-8.379,15.008-16.853a185.516,185.516,0,0,1,32.135-15.9,31.908,31.908,0,0,0,10.244-6.094,17.93,17.93,0,0,0,4.881-9.521q1.173-5.522-.259-8.189a4.753,4.753,0,0,0-4.48-2.666,19.987,19.987,0,0,0-4.827.762q-2.925.762-3.916.952a36.871,36.871,0,0,1-7.56,1.523q-5.526,0-13.494-.571t-10.978-.761q-14.383-1.332-23.14-1.334a8.632,8.632,0,0,0-6.747,3.524,18.408,18.408,0,0,0-3.91,8.092,11.461,11.461,0,0,0,.591,7.523q1.519,3.141,5.752,2.951l31.392-.761q-20.755,8.952-32.911,18.662T307.69,222.161a21.632,21.632,0,0,0,1.828,15.14q3.608,6.761,12.3,10.664t21.641,3.9a74.535,74.535,0,0,0,31.219-6.664,86.087,86.087,0,0,0,20.455-13.047,25.657,25.657,0,0,0,3.976,6.953q8.734,10.854,28.733,10.854a64.077,64.077,0,0,0,29.054-7.236,108.64,108.64,0,0,0,16.116-9.785,37.912,37.912,0,0,0,.15,9.4q1.331,7.618,8.569,7.617,5.9,0,9.333-3.142t7.426-12.092a165.609,165.609,0,0,1,12.217-22.09,136.656,136.656,0,0,1,12.723-16.853q5.827-6.378,8.307-6.379,2.092,0,1.446,3.046-.891,4.191-6.414,19.424-6.393,17.523-8.008,25.137-1.377,6.476.792,9.712t8.452,3.237a20.345,20.345,0,0,0,5.765-.75,73.22,73.22,0,0,0,22.33-7.2q15.8-7.942,25.537-17.353,4.947-4.6,6.728-12.963Q589.3,207.31,588.264,204.8Zm-170.316,2.127a46.4,46.4,0,0,1,9.065-19.8q6.6-8.185,13.642-8.189a5.638,5.638,0,0,1,4.963,2.19q1.533,2.192.764,5.808-1.5,7.049-9.105,12.378t-19.41,8Z" transform="translate(-64 -75.286)" style="fill: #e85d64"/>
    <path d="M953.213,187.656c-19.916,12.648-34.533,33.232-57.49,42.39,2.291-4.9,5.532-8.738,8.76-12.589,8.255-9.85,16.8-19.537,21.689-31.654,6.127-15.18-3.15-27.434-19.476-25.935-6.625.608-12.3,3.59-17.581,7.341-4.1,2.916-7.962,6.173-12.622,9.819-.132-2.477-.087-3.992-.327-5.46a41.332,41.332,0,0,0-1.089-4.214c-8.3-4.585-11.149-4.2-15.478,2.6-2.221,3.488-4.571,7.3-5.31,11.254-2.618,14.015-11.777,23.077-22.213,31.415-7.684,6.14-14.977,12.892-25.16,15.909-1.772-6.559.638-11.575,2.672-16.555q20.757-50.817,41.642-101.581a56.971,56.971,0,0,0,3.293-9c.887-3.994-.074-7.693-3.7-10.209-3.881-2.7-7.807-2.35-11.782-.134-3.612,2.014-5.372,5.368-6.8,9.015q-22.715,57.813-45.409,115.634c-3.3,8.459-11.9,13.765-22.466,12.718-.291-12.165,4.879-22.841,9.22-33.738,2.966-7.445,6.252-14.81,8.507-22.472,1.479-5.023-.633-9.695-5.869-11.773-5.082-2.016-8.882.551-11.211,4.866a113.684,113.684,0,0,0-5.731,13.2c-5.7,14.788-12.559,28.91-23.837,40.344-4.942,5.011-10.406,9.47-18.337,8.218-2.622-4.7-1.011-8.993.035-13.286,3.31-13.592,10.659-25.4,16.694-37.791,2.75-5.645,4.385-11.4-2.659-14.84-6.521-3.191-12.393-.75-15.573,5.374a292.9,292.9,0,0,0-16.7,37.25c-.15.13-.3.254-.449.394A95.971,95.971,0,0,1,673.981,221.4c-.9.443-1.781.847-2.656,1.245,4.441-14.687,9.192-29.276,14.828-43.59a61.092,61.092,0,0,0,4.462-20.635c.163-5.6-1.021-10.534-7.325-11.836-5.869-1.212-10.087,1.815-12.353,6.963a114,114,0,0,0-5.8,16.32c-6.271,23.4-22.5,39.178-40.679,53.393-4.784,3.739-10.171,7.028-17.56,4.225-6.987-8.165-5.683-18.3-3.912-27.976,5.788-31.633,19.722-59.613,39.925-84.457a75.954,75.954,0,0,1,14.019-13.125c12-8.784,20.837-6.661,28.661,6.049,3.143,5.107,5.511,11.112,12.4,12.314,10.221-4.209,13.13-12.607,7.931-22.473-10.9-20.681-33.183-28.138-54.233-18.124a69.929,69.929,0,0,0-19.019,13.015c-34.526,33.762-53.522,74.987-57.28,122.931-1.089,13.887,2.9,27.223,16.318,34.741,12.826,7.184,24.352,1.49,35.04-5.67,7.11-4.763,13.627-10.413,21.017-16.137-.123,7.329-3.4,13.067-4.754,19.258-1.237,5.639-3.247,11.159-3.942,16.851-.648,5.3-1.3,11.884,5.559,13.744,6.64,1.8,9.531-3.981,12.237-8.7a37.382,37.382,0,0,0,3.035-8.083q2.34-7.954,4.633-15.924a77.9,77.9,0,0,0,11.771-4.772,123.513,123.513,0,0,0,15.536-9.2c-1.12,14.526,8.79,22.235,24.34,19.486,11.946-2.112,20.934-9.146,29.673-18.537,3.9,22.823,11.213,24.27,38.155,8.741,5.2,9.429,13.056,12.1,23.395,9.1,9.33-2.711,16.562-8.985,26.245-15.266-5.878,12.631-10.911,23.274-15.792,33.986-3.854,8.462-8.263,16.76-10.045,25.979-.929,4.81-1.1,10.05,4.545,12.416,5.233,2.194,10.093.9,14.094-3.2,3.46-3.549,5.244-8.019,6.856-12.582,7.487-21.2,15.722-42.1,25.226-62.489,6.711-14.4,14.894-27.772,26.773-38.5,5.17-4.667,10.784-9.036,18.759-7.976.934,6.479-3.5,9.888-6.43,13.806-7.687,10.277-16.987,19.353-23.327,30.629-7.668,13.636-1.147,24.463,14.536,24.459a38.753,38.753,0,0,0,19.3-5.288c18.419-10.415,32.729-25.832,47.852-40.146C962.42,200.289,960.843,192.927,953.213,187.656Z" transform="translate(-64 -75.286)" style="fill: #e8000c"/>
  </g>
  <g>
    <polygon points="198.975 190.648 18.475 190.648 108.725 219.103 198.975 190.648" style="fill: #e85d64"/>
    <path d="M281.053,152.96l-.638-7.919-8.092-.625a125.454,125.454,0,0,0-22.793.278c7.031,50.57-16.741,97.857-61.038,116.538-.191.081-.386.157-.578.236l-.285,4.465C245.46,260.129,285.922,213.352,281.053,152.96Z" transform="translate(-64 -75.286)" style="fill: #e85d64"/>
    <path d="M95.92,144.694a125.454,125.454,0,0,0-22.793-.278l-8.092.625L64.4,152.96C59.561,212.94,99.44,259.49,156.64,265.809l-.4-4.888C112.407,242.033,88.927,194.99,95.92,144.694Z" transform="translate(-64 -75.286)" style="fill: #e85d64"/>
    <path d="M249.53,144.694a136.289,136.289,0,0,0-8.376-31.5l-2.991-7.536-6.948,2.212a100.016,100.016,0,0,0-24.62,11.688,117.6,117.6,0,0,1,10.578,33.484A111.043,111.043,0,0,1,249.53,144.694Z" transform="translate(-64 -75.286)" style="fill: #e85d64"/>
    <path d="M191.787,245.72l-3.186,5.009-.687,10.739c.192-.079.387-.155.578-.236,44.3-18.681,68.069-65.968,61.038-116.538a111.043,111.043,0,0,0-32.357,8.348C222.2,185.083,213.734,218.578,191.787,245.72Z" transform="translate(-64 -75.286)" style="fill: #e82e37"/>
    <path d="M138.855,119.558a100.016,100.016,0,0,0-24.62-11.688l-6.948-2.212-2.991,7.536a136.289,136.289,0,0,0-8.376,31.5,111.043,111.043,0,0,1,32.357,8.348A117.6,117.6,0,0,1,138.855,119.558Z" transform="translate(-64 -75.286)" style="fill: #e85d64"/>
    <path d="M156.241,260.921l-.816-10-4.5-6.846c.281.106-.384-.344-.574-1.956l-.091-.8a117.511,117.511,0,0,1-21.986-88.278,111.043,111.043,0,0,0-32.357-8.348C88.927,194.99,112.407,242.033,156.241,260.921Z" transform="translate(-64 -75.286)" style="fill: #e82e37"/>
    <path d="M172.725,157.377a99.946,99.946,0,0,1,33.87-37.819,125.05,125.05,0,0,0-27.7-36.922l-6.173-5.7-6.173,5.7a125.033,125.033,0,0,0-27.7,36.922A99.946,99.946,0,0,1,172.725,157.377Z" transform="translate(-64 -75.286)" style="fill: #e85d64"/>
    <path d="M150.263,241.32c-.759-6.632-6.015-52.536-6.082-53.046a.584.584,0,0,1,0-.263.606.606,0,0,1,.241-.268c2.153-1.544,5.813-1.713,8.459-2.029,2.7-.323,5.409-.528,8.123-.676,5.832-.317,11.686-.369,17.525-.2l3.04-10.542,14.887-14.069c.939-.854,4.486,1.985,3.7,2.786L186.2,176.251l-2.42,8.814c2.975.17,5.952.408,8.9.807a39.116,39.116,0,0,1,4.811.893,7.785,7.785,0,0,1,2.405,1c.08.055.159.112.235.172a.391.391,0,0,1,.041.242c-.13.93-6.718,54.007-6.718,54.007.433-.351-.745,1.805-.511,1.716l-1.157,1.82c21.947-27.142,30.411-60.637,25.386-92.678A117.6,117.6,0,0,0,206.6,119.558a99.946,99.946,0,0,0-33.87,37.819,99.946,99.946,0,0,0-33.87-37.819A116.972,116.972,0,0,0,150.263,241.32Z" transform="translate(-64 -75.286)" style="fill: #e8000c"/>
  </g>
</svg>
