<svg xmlns="http://www.w3.org/2000/svg" viewBox="0 0 1024 1024">
  <title>logo</title>
  <polygon points="937 890 87 890 512 1024 937 890" style="fill: #e85d64"/>
  <g>
    <path d="M1150.132,486l-3.007-37.295-38.106-2.943a590.8,590.8,0,0,0-107.334,1.313C1034.8,685.21,922.85,907.889,714.251,995.863c-.9.38-1.817.737-2.722,1.112L710.186,1018C982.521,990.667,1173.061,770.388,1150.132,486Z" transform="translate(-128 -128)" style="fill: #e85d64"/>
    <path d="M278.315,447.071a590.8,590.8,0,0,0-107.334-1.313L132.875,448.7,129.868,486C107.1,768.449,294.89,987.66,564.255,1017.414L562.377,994.4C355.956,905.449,245.382,683.917,278.315,447.071Z" transform="translate(-128 -128)" style="fill: #e85d64"/>
    <path d="M1001.685,447.071a641.63,641.63,0,0,0-39.443-148.338l-14.086-35.489-32.72,10.416A471,471,0,0,0,799.5,328.7a553.854,553.854,0,0,1,49.814,157.68C896.1,466.241,947.242,452.8,1001.685,447.071Z" transform="translate(-128 -128)" style="fill: #e85d64"/>
    <path d="M729.764,922.813l-15,23.59-3.232,50.572c.9-.375,1.821-.732,2.722-1.112,208.6-87.974,320.546-310.653,287.434-548.792-54.443,5.724-105.586,19.17-152.373,39.308C872.975,637.267,833.117,795,729.764,922.813Z" transform="translate(-128 -128)" style="fill: #e82e37"/>
    <path d="M480.5,328.7A471,471,0,0,0,364.564,273.66l-32.72-10.416-14.086,35.489a641.63,641.63,0,0,0-39.443,148.338c54.443,5.724,105.586,19.17,152.373,39.308A553.854,553.854,0,0,1,480.5,328.7Z" transform="translate(-128 -128)" style="fill: #e85d64"/>
    <path d="M562.377,994.4l-3.844-47.1-21.177-32.237c1.322.5-1.807-1.623-2.7-9.213,0,0-.151-1.317-.429-3.75-91.416-123.916-125.936-272.88-103.536-415.712-46.787-20.138-97.93-33.584-152.373-39.308C245.382,683.917,355.956,905.449,562.377,994.4Z" transform="translate(-128 -128)" style="fill: #e82e37"/>
    <path d="M640,506.8c37.224-71.851,91.224-133.272,159.5-178.1-30.837-63.027-74.309-122.072-130.427-173.867L640,128l-29.071,26.832C554.811,206.627,511.34,265.672,480.5,328.7,548.776,373.525,602.776,434.946,640,506.8Z" transform="translate(-128 -128)" style="fill: #e85d64"/>
    <path d="M534.224,902.091c-3.576-31.229-28.328-247.395-28.643-249.8a2.722,2.722,0,0,1,.027-1.238,2.843,2.843,0,0,1,1.131-1.264c10.141-7.271,27.375-8.065,39.839-9.556,12.692-1.52,25.471-2.485,38.249-3.181,27.463-1.5,55.032-1.736,82.528-.933l14.317-49.645,70.1-66.25c4.424-4.023,21.128,9.346,17.415,13.118l-65.734,62.33-11.4,41.5c14.011.8,28.027,1.925,41.914,3.8a183.881,183.881,0,0,1,22.657,4.205,36.586,36.586,0,0,1,11.327,4.7q.567.387,1.106.81a1.84,1.84,0,0,1,.194,1.14c-.615,4.377-31.639,254.327-31.639,254.327,2.04-1.655-3.508,8.5-2.4,8.078l-5.451,8.571C833.117,795,872.975,637.267,849.312,486.379A553.854,553.854,0,0,0,799.5,328.7C731.224,373.525,677.224,434.946,640,506.8c-37.224-71.851-91.224-133.272-159.5-178.1a553.854,553.854,0,0,0-49.814,157.68C408.288,629.211,442.808,778.175,534.224,902.091Z" transform="translate(-128 -128)" style="fill: #e8000c"/>
  </g>
</svg>
